<?xml version="1.0" standalone="no"?>
<!DOCTYPE svg PUBLIC "-//W3C//DTD SVG 20010904//EN"
 "http://www.w3.org/TR/2001/REC-SVG-20010904/DTD/svg10.dtd">
<svg version="1.0" xmlns="http://www.w3.org/2000/svg"
 width="618.000000pt" height="618.000000pt" viewBox="0 0 618.000000 618.000000"
 preserveAspectRatio="xMidYMid meet">

<g transform="translate(0.000000,618.000000) scale(0.100000,-0.100000)"
fill="#000000" stroke="none">
<path d="M360 5795 l-195 -195 1292 -1293 1291 -1292 -481 -487 c-265 -268
-842 -850 -1282 -1294 l-800 -807 193 -188 c106 -104 197 -189 202 -189 6 0
1411 1412 2432 2445 l128 130 1255 -1255 1255 -1255 197 198 198 197 -1254
1254 -1254 1254 248 254 c136 139 700 709 1253 1266 l1006 1013 -196 196 -196
196 -663 -669 c-365 -368 -929 -937 -1254 -1265 l-590 -595 -1290 1288 c-710
708 -1292 1288 -1295 1288 -3 0 -93 -88 -200 -195z"/>
</g>
</svg>
