<?xml version="1.0" standalone="no"?>
<!DOCTYPE svg PUBLIC "-//W3C//DTD SVG 20010904//EN"
 "http://www.w3.org/TR/2001/REC-SVG-20010904/DTD/svg10.dtd">
<svg version="1.0" xmlns="http://www.w3.org/2000/svg"
 width="500.000000pt" height="500.000000pt" viewBox="0 0 500.000000 500.000000"
 preserveAspectRatio="xMidYMid meet" style="background-color:rgb(181,52,34)">

<g transform="translate(0.000000,500.000000) scale(0.100000,-0.100000)"
fill="#ffffff" stroke="solid black">
<path d="M851 4669 c-255 -66 -448 -257 -523 -516 l-23 -78 0 -1575 0 -1575
23 -79 c64 -222 228 -409 429 -491 141 -57 77 -55 1743 -55 1652 0 1599 -2
1734 51 180 71 337 230 411 414 56 141 54 94 55 1735 0 1442 -1 1519 -19 1606
-58 279 -263 495 -535 564 -77 20 -113 20 -1650 19 -1523 0 -1573 -1 -1645
-20z m3055 -779 c17 -48 17 -95 -1 -110 -8 -7 -15 -18 -15 -25 0 -21 -114 -28
-339 -21 -114 3 -707 7 -1319 8 l-1113 1 -19 28 c-28 38 -25 72 9 108 l29 31
634 1 c348 1 962 5 1363 9 402 3 736 6 744 6 8 -1 20 -17 27 -36z m-15 -536
c50 -29 49 -59 -3 -123 l-43 -53 -110 6 c-60 3 -336 9 -611 13 l-502 6 -7 -76
c-10 -105 -10 -200 -2 -1087 4 -426 4 -799 1 -828 -8 -68 -35 -100 -89 -107
-22 -3 -46 -2 -53 3 -7 5 -22 42 -34 83 -20 72 -20 100 -23 964 -1 697 -5 907
-15 968 l-14 77 -515 -1 c-284 0 -552 -4 -596 -8 -100 -11 -140 1 -173 49 -17
26 -22 43 -18 65 13 64 -54 59 969 66 513 3 1128 5 1368 4 414 -2 438 -3 470
-21z m-687 -506 c20 -31 45 -124 47 -173 1 -22 -2 -92 -6 -155 -7 -105 -5
-126 20 -235 27 -122 100 -332 159 -460 77 -165 365 -531 444 -564 31 -13 52
-52 52 -97 0 -27 -68 -84 -101 -84 -17 0 -73 50 -205 183 -212 213 -268 292
-412 577 -84 166 -95 194 -107 275 -25 159 -37 402 -30 567 8 169 13 184 59
176 14 -3 31 -1 38 3 20 13 26 11 42 -13z m-1274 -23 c45 -23 50 -59 41 -340
-8 -241 -9 -253 -39 -345 -17 -52 -40 -131 -52 -175 -27 -97 -94 -252 -151
-349 -98 -165 -257 -356 -349 -419 -25 -17 -71 -52 -103 -79 -48 -39 -66 -48
-97 -48 -22 0 -44 6 -49 13 -52 62 -62 79 -57 92 3 8 33 36 68 62 139 107 197
174 349 405 201 306 265 519 275 918 3 107 7 214 10 238 l5 42 60 0 c34 0 73
-7 89 -15z" fill="white"/>
</g>
</svg>
