<svg version="1.1" id="Layer_1" xmlns="http://www.w3.org/2000/svg" xmlns:xlink="http://www.w3.org/1999/xlink" x="0px" y="0px"
	 width="100%" viewBox="0 0 1400 1400" enable-background="new 0 0 1400 1400" xml:space="preserve">
<path fill="#000000" opacity="0.000000" stroke="none" 
	d="
M1.000000,534.000000 
	C1.000000,356.000031 1.000000,178.500061 1.000000,1.000048 
	C234.333252,1.000000 467.666504,1.000000 700.999756,1.000000 
	C934.333069,1.000000 1167.666382,1.000000 1400.999756,1.000000 
	C1400.999756,467.666473 1400.999756,934.332947 1400.999878,1400.999512 
	C934.333618,1400.999756 467.667236,1400.999756 1.000423,1400.999878 
	C1.000000,1112.166626 1.000000,823.333313 1.000000,534.000000 
M1340.726318,1111.486206 
	C1340.817505,1109.161987 1340.988525,1106.837769 1340.988647,1104.513550 
	C1341.000610,836.046631 1341.000244,567.579712 1340.995483,299.112823 
	C1340.995361,296.781006 1340.927490,294.449219 1340.948608,291.198700 
	C1340.223022,283.117218 1340.141113,274.912415 1338.622314,266.982849 
	C1336.294678,254.830292 1333.257324,242.791260 1330.011719,230.842392 
	C1325.649170,214.781357 1318.071777,200.094223 1308.932617,186.297958 
	C1303.397461,177.942276 1297.487183,169.705948 1290.781006,162.287979 
	C1282.616821,153.257339 1273.819092,144.702957 1264.601929,136.745819 
	C1253.482910,127.146889 1241.142578,119.113663 1227.633789,113.179764 
	C1217.034668,108.523949 1206.455444,103.564613 1195.413818,100.252098 
	C1185.737671,97.349159 1175.479492,96.140846 1165.388794,94.928360 
	C1153.713379,93.525421 1141.940430,92.120232 1130.208984,92.113762 
	C850.927673,91.959869 571.646179,91.996208 292.364746,91.989365 
	C274.420563,91.988922 256.552338,92.103859 238.668884,94.716583 
	C215.821701,98.054504 194.213943,104.995705 174.129715,115.911606 
	C154.591034,126.530975 136.266388,139.278564 121.923676,156.672729 
	C112.528290,168.067017 102.987709,179.498703 95.048103,191.897217 
	C84.709175,208.042526 78.299080,226.097458 73.494957,244.714066 
	C68.653572,263.475098 67.120682,282.628845 67.108505,301.807190 
	C66.942657,563.091858 66.940887,824.376770 67.122185,1085.661377 
	C67.134354,1103.198608 68.644859,1120.757446 69.994865,1138.264893 
	C71.410034,1156.617432 77.151726,1173.973511 84.731033,1190.562988 
	C89.632675,1201.291748 95.764259,1211.524780 102.065620,1221.525757 
	C106.782486,1229.011719 111.969208,1236.446289 118.160751,1242.702271 
	C128.003357,1252.647461 138.639771,1261.849365 149.340973,1270.891602 
	C162.206268,1281.762451 177.160538,1289.359131 192.595779,1295.740601 
	C208.380127,1302.266235 224.816376,1306.940674 241.903503,1308.675903 
	C249.573837,1309.454956 257.309021,1309.595215 265.530792,1310.692139 
	C267.853302,1310.794800 270.175781,1310.987183 272.498291,1310.987305 
	C559.792175,1311.000732 847.086121,1311.000244 1134.380005,1310.995239 
	C1136.545044,1310.995239 1138.710205,1310.922852 1141.794922,1310.943848 
	C1145.424438,1310.644409 1149.051147,1310.302856 1152.684082,1310.052490 
	C1176.455811,1308.414307 1199.135742,1302.721313 1220.927124,1292.920166 
	C1239.040161,1284.773438 1255.355347,1274.099731 1270.504761,1261.369141 
	C1290.296753,1244.737183 1305.727295,1224.671509 1317.790283,1201.970703 
	C1330.220459,1178.578857 1337.128174,1153.460083 1339.893188,1127.194214 
	C1340.421997,1122.171631 1340.009033,1117.049927 1340.726318,1111.486206 
z"/>
<path fill="#0C3041" opacity="1.000000" stroke="none" 
	d="
M265.014771,1310.025269 
	C257.309021,1309.595215 249.573837,1309.454956 241.903503,1308.675903 
	C224.816376,1306.940674 208.380127,1302.266235 192.595779,1295.740601 
	C177.160538,1289.359131 162.206268,1281.762451 149.340973,1270.891602 
	C138.639771,1261.849365 128.003357,1252.647461 118.160751,1242.702271 
	C111.969208,1236.446289 106.782486,1229.011719 102.065620,1221.525757 
	C95.764259,1211.524780 89.632675,1201.291748 84.731033,1190.562988 
	C77.151726,1173.973511 71.410034,1156.617432 69.994865,1138.264893 
	C68.644859,1120.757446 67.134354,1103.198608 67.122185,1085.661377 
	C66.940887,824.376770 66.942657,563.091858 67.108505,301.807190 
	C67.120682,282.628845 68.653572,263.475098 73.494957,244.714066 
	C78.299080,226.097458 84.709175,208.042526 95.048103,191.897217 
	C102.987709,179.498703 112.528290,168.067017 121.923676,156.672729 
	C136.266388,139.278564 154.591034,126.530975 174.129715,115.911606 
	C194.213943,104.995705 215.821701,98.054504 238.668884,94.716583 
	C256.552338,92.103859 274.420563,91.988922 292.364746,91.989365 
	C571.646179,91.996208 850.927673,91.959869 1130.208984,92.113762 
	C1141.940430,92.120232 1153.713379,93.525421 1165.388794,94.928360 
	C1175.479492,96.140846 1185.737671,97.349159 1195.413818,100.252098 
	C1206.455444,103.564613 1217.034668,108.523949 1227.633789,113.179764 
	C1241.142578,119.113663 1253.482910,127.146889 1264.601929,136.745819 
	C1273.819092,144.702957 1282.616821,153.257339 1290.781006,162.287979 
	C1297.487183,169.705948 1303.397461,177.942276 1308.932617,186.297958 
	C1318.071777,200.094223 1325.649170,214.781357 1330.011719,230.842392 
	C1333.257324,242.791260 1336.294678,254.830292 1338.622314,266.982849 
	C1340.141113,274.912415 1340.223022,283.117218 1340.655518,291.966461 
	C1340.241455,295.053833 1340.015503,297.373383 1340.015137,299.693024 
	C1339.997437,397.000153 1339.996460,494.307251 1340.000732,591.614380 
	C1340.008179,765.067566 1340.020508,938.520691 1340.030640,1111.973877 
	C1340.009033,1117.049927 1340.421997,1122.171631 1339.893188,1127.194214 
	C1337.128174,1153.460083 1330.220459,1178.578857 1317.790283,1201.970703 
	C1305.727295,1224.671509 1290.296753,1244.737183 1270.504761,1261.369141 
	C1255.355347,1274.099731 1239.040161,1284.773438 1220.927124,1292.920166 
	C1199.135742,1302.721313 1176.455811,1308.414307 1152.684082,1310.052490 
	C1149.051147,1310.302856 1145.424438,1310.644409 1141.015381,1310.670654 
	C1138.584839,1310.265259 1136.933838,1310.016846 1135.282715,1310.016724 
	C845.193420,1310.008057 555.104065,1310.017090 265.014771,1310.025269 
M869.211792,271.011230 
	C857.147522,266.984528 845.083252,262.957825 832.669617,258.347839 
	C831.777954,258.233673 830.886353,258.119537 829.671997,257.563202 
	C829.141663,257.500885 828.611389,257.438599 827.379578,256.983246 
	C824.542358,256.194122 821.735840,255.263214 818.862305,254.642029 
	C809.619995,252.644119 800.353027,250.760498 791.114197,248.902039 
	C791.114197,248.902039 791.182434,248.880127 790.731812,248.472534 
	C790.156982,248.356323 789.582214,248.240112 788.164490,247.952957 
	C782.541382,247.199814 776.913208,246.482315 771.296265,245.685867 
	C760.521484,244.158081 749.753113,242.585495 738.082092,240.800720 
	C729.190979,240.221222 720.307495,239.336166 711.407471,239.115967 
	C675.947632,238.238678 640.745422,240.577133 605.758545,246.854233 
	C577.301392,251.959824 549.381470,259.140778 522.524719,269.531799 
	C500.333008,278.117920 478.415253,287.916992 457.583710,299.374237 
	C435.984406,311.253784 415.211334,324.906891 395.206879,339.349396 
	C367.225952,359.550659 341.970673,383.054108 319.932343,409.703979 
	C306.715210,425.686768 293.661926,441.911835 281.907806,458.973816 
	C262.054077,487.792938 245.973892,518.777771 233.121078,551.373169 
	C232.141617,553.857117 230.950760,554.910217 228.121719,555.087891 
	C213.066772,556.033203 199.336685,560.833618 186.953522,569.589722 
	C158.628952,589.618042 145.979416,627.812683 159.201599,662.067566 
	C166.180145,680.147095 177.917892,694.069458 194.957153,703.280457 
	C198.110779,704.985291 198.868927,706.647156 198.762146,710.103088 
	C198.330856,724.063538 198.347061,738.037842 198.073624,752.864136 
	C199.804520,770.916626 201.535416,788.969177 203.230606,807.859253 
	C207.246613,826.909363 211.262619,845.959412 215.255951,865.646484 
	C215.474747,865.991516 215.693527,866.336548 215.619888,867.273987 
	C216.042221,868.238708 216.464539,869.203491 216.866135,870.960876 
	C220.669220,883.101501 224.204788,895.334900 228.371384,907.349426 
	C231.054489,915.086365 234.664505,922.501831 237.971085,930.796997 
	C246.472351,947.776794 254.973602,964.756592 263.619446,982.391724 
	C273.398102,997.289795 283.176727,1012.187805 293.134186,1027.741455 
	C297.426849,1033.404419 301.512573,1039.240112 306.059723,1044.690796 
	C313.209625,1053.261230 320.670288,1061.572510 328.278412,1070.604736 
	C341.154266,1083.140869 354.030121,1095.677002 367.266968,1108.763794 
	C382.464752,1120.531250 397.662537,1132.298706 413.223938,1144.642700 
	C433.105927,1156.223267 452.987885,1167.803711 473.335327,1179.874268 
	C480.324707,1183.198242 487.156006,1186.921997 494.336761,1189.762207 
	C508.770721,1195.471069 523.395264,1200.698120 538.317993,1206.744263 
	C551.200989,1210.392578 564.018616,1214.294556 576.979980,1217.639160 
	C609.390808,1226.002686 642.460388,1230.329956 675.830139,1231.477783 
	C694.742249,1232.128174 713.774963,1231.324829 732.665161,1229.957275 
	C750.017090,1228.701294 767.382935,1226.552368 784.510437,1223.495605 
	C827.305847,1215.857788 868.343811,1202.334229 907.621155,1183.767578 
	C937.568054,1169.611694 965.828735,1152.437744 992.263306,1132.483154 
	C1025.815918,1107.155640 1055.810547,1078.058716 1082.140137,1045.225830 
	C1105.571289,1016.007385 1125.386719,984.466919 1141.675049,950.808533 
	C1158.979858,915.049683 1171.746826,877.626526 1179.889893,838.705688 
	C1186.392090,807.628174 1190.070435,776.206604 1190.767456,744.442078 
	C1191.496216,711.244263 1188.522217,678.321411 1182.545044,645.731995 
	C1179.658325,629.993042 1175.037842,614.572021 1171.289062,598.194824 
	C1168.949585,590.804749 1166.924927,583.294922 1164.173950,576.061279 
	C1161.828979,569.894897 1160.953979,564.475342 1165.925049,559.019714 
	C1167.803955,556.957764 1168.607788,553.746948 1169.432617,550.922913 
	C1173.297363,537.691284 1173.846924,524.582825 1167.292236,511.128784 
	C1159.675293,493.820099 1146.177490,483.974640 1127.979736,479.983032 
	C1124.588623,479.239227 1121.303345,478.013550 1117.813354,476.331390 
	C1105.933960,459.527039 1094.054443,442.722656 1081.888916,425.295654 
	C1080.868164,424.022675 1079.914429,422.688354 1078.816284,421.486115 
	C1066.940918,408.484802 1055.042725,395.504272 1042.731812,382.040955 
	C1036.639282,376.210236 1030.781250,370.106812 1024.396973,364.615173 
	C1015.653076,357.093750 1006.509521,350.036896 997.172852,342.158173 
	C993.721375,339.574677 990.368042,336.845886 986.799744,334.435211 
	C976.584961,327.534363 966.283020,320.762512 955.684021,313.335358 
	C941.060120,305.243439 926.436218,297.151550 911.333679,288.534180 
	C909.985229,288.009521 908.623108,287.517426 907.290527,286.955170 
	C894.850891,281.706451 882.416382,276.445709 869.211792,271.011230 
M1128.991943,197.164841 
	C1127.135254,190.908417 1125.875854,184.390152 1123.276611,178.459091 
	C1119.698486,170.294434 1114.435425,163.101044 1106.692871,157.143768 
	C1105.751465,156.526657 1104.747925,155.986130 1103.878174,155.280685 
	C1094.534058,147.701813 1083.950195,142.979889 1071.935303,141.939728 
	C1048.937256,139.948669 1029.457153,147.248596 1014.411072,164.961670 
	C1000.972351,180.782257 996.463379,199.214035 1000.273010,219.534821 
	C1002.276062,230.219269 1006.572998,239.998093 1014.139648,248.858261 
	C1024.316772,261.154633 1037.271484,268.687866 1053.817749,271.770050 
	C1061.731812,271.592834 1069.893433,272.605042 1077.514282,271.019287 
	C1102.092529,265.905182 1118.745728,250.921249 1126.888550,227.205673 
	C1130.097656,217.859421 1131.624268,207.960480 1128.991943,197.164841 
M1262.839355,350.129700 
	C1255.235107,344.033234 1246.679688,339.989258 1237.133179,337.945160 
	C1212.125244,332.590637 1190.904297,339.648682 1173.776733,358.200958 
	C1159.577881,373.581024 1154.568359,392.110107 1158.038574,412.785858 
	C1159.727661,422.849823 1163.182739,432.219910 1170.146729,440.754181 
	C1180.961182,455.565826 1195.456909,464.137085 1213.653198,466.479065 
	C1235.550903,469.297394 1254.807007,463.090393 1269.704956,447.114899 
	C1289.388428,426.007996 1293.332397,401.295868 1281.969849,374.585968 
	C1277.897461,365.012726 1271.902954,356.705109 1262.839355,350.129700 
z"/>
<path fill="#4A626F" opacity="1.000000" stroke="none" 
	d="
M265.272766,1310.358643 
	C555.104065,1310.017090 845.193420,1310.008057 1135.282715,1310.016724 
	C1136.933838,1310.016846 1138.584839,1310.265259 1140.555664,1310.640869 
	C1138.710205,1310.922852 1136.545044,1310.995239 1134.380005,1310.995239 
	C847.086121,1311.000244 559.792175,1311.000732 272.498291,1310.987305 
	C270.175781,1310.987183 267.853302,1310.794800 265.272766,1310.358643 
z"/>
<path fill="#586E7A" opacity="1.000000" stroke="none" 
	d="
M1340.378418,1111.729980 
	C1340.020508,938.520691 1340.008179,765.067566 1340.000732,591.614380 
	C1339.996460,494.307251 1339.997437,397.000153 1340.015137,299.693024 
	C1340.015503,297.373383 1340.241455,295.053833 1340.626709,292.425812 
	C1340.927490,294.449219 1340.995361,296.781006 1340.995483,299.112823 
	C1341.000244,567.579712 1341.000610,836.046631 1340.988647,1104.513550 
	C1340.988525,1106.837769 1340.817505,1109.161987 1340.378418,1111.729980 
z"/>
<path fill="#60D4F5" opacity="1.000000" stroke="none" 
	d="
M1171.202393,599.007080 
	C1175.037842,614.572021 1179.658325,629.993042 1182.545044,645.731995 
	C1188.522217,678.321411 1191.496216,711.244263 1190.767456,744.442078 
	C1190.070435,776.206604 1186.392090,807.628174 1179.889893,838.705688 
	C1171.746826,877.626526 1158.979858,915.049683 1141.675049,950.808533 
	C1125.386719,984.466919 1105.571289,1016.007385 1082.140137,1045.225830 
	C1055.810547,1078.058716 1025.815918,1107.155640 992.263306,1132.483154 
	C965.828735,1152.437744 937.568054,1169.611694 907.621155,1183.767578 
	C868.343811,1202.334229 827.305847,1215.857788 784.510437,1223.495605 
	C767.382935,1226.552368 750.017090,1228.701294 732.665161,1229.957275 
	C713.774963,1231.324829 694.742249,1232.128174 675.830139,1231.477783 
	C642.460388,1230.329956 609.390808,1226.002686 576.979980,1217.639160 
	C564.018616,1214.294556 551.200989,1210.392578 538.309448,1206.144531 
	C549.121338,1195.081787 559.958435,1184.635742 570.739685,1174.132568 
	C571.991943,1172.912598 572.935120,1171.375488 574.419067,1169.977051 
	C577.186462,1170.642700 579.536865,1171.397217 581.929260,1171.979004 
	C614.556335,1179.913940 647.590271,1184.975830 681.201538,1185.843018 
	C687.391907,1186.002686 693.589966,1185.865723 700.425293,1185.865723 
	C686.405212,1170.970215 672.971497,1156.707275 659.549011,1142.433716 
	C650.680542,1133.003052 641.828308,1123.557007 633.055054,1113.778198 
	C638.371094,1107.996704 643.578247,1102.532715 648.836975,1097.119019 
	C653.993530,1091.810425 659.202454,1086.552734 664.675537,1081.466309 
	C691.795166,1110.032837 718.627625,1138.405640 745.865540,1167.207275 
	C787.646240,1126.372437 829.362427,1085.600586 871.966919,1043.960571 
	C835.394653,1042.593262 800.354187,1041.309570 765.316284,1039.961792 
	C748.547485,1039.316650 731.783325,1038.550537 715.023743,1037.472900 
	C715.539551,1035.740723 715.683838,1034.015747 716.617493,1033.067871 
	C722.328308,1027.269653 728.308350,1021.736755 734.025330,1015.944336 
	C741.105713,1008.770569 748.017456,1001.430359 755.465210,994.093628 
	C771.539795,994.491394 787.156189,994.829712 802.761230,995.452698 
	C828.304749,996.472351 853.841309,997.669312 879.380005,998.807556 
	C889.719604,999.268311 895.715637,993.024963 894.886902,982.720581 
	C893.876709,970.160156 892.965149,957.591858 891.970215,945.030090 
	C891.026917,933.121094 889.972900,921.220581 889.077637,909.308105 
	C888.419556,900.551758 887.938904,891.782166 887.712646,882.976990 
	C889.303589,882.181030 890.748535,881.624573 891.789124,880.640503 
	C900.001282,872.874878 907.981689,864.856750 916.360046,857.277405 
	C920.573303,853.465759 925.466248,850.405396 930.176819,847.424194 
	C931.189392,858.088989 932.193115,868.326355 932.942749,878.582336 
	C935.061707,907.573059 937.055664,936.572937 939.156189,965.565002 
	C939.455444,969.695862 940.072937,973.803589 940.636780,978.742126 
	C1003.235596,918.008850 1065.127319,857.961609 1127.418091,797.527161 
	C1125.564941,796.901978 1124.397949,796.352661 1123.170654,796.117188 
	C1093.308350,790.387268 1063.437500,784.701355 1033.573120,778.982788 
	C1023.043945,776.966614 1012.527161,774.885315 1002.038147,772.485657 
	C1002.893555,770.748657 1003.462585,769.100159 1004.578430,768.012756 
	C1012.027771,760.753540 1019.240173,753.184998 1027.246704,746.587097 
	C1032.554321,742.213135 1036.394531,735.297668 1044.863770,734.794189 
	C1047.232666,735.026733 1049.210083,735.280579 1051.163696,735.658020 
	C1081.987427,741.613464 1112.807983,747.584778 1144.108521,753.645203 
	C1144.360107,751.224426 1144.753418,748.957397 1144.808716,746.682129 
	C1145.731445,708.646362 1141.984253,671.075256 1133.685669,633.631653 
	C1144.848389,622.570068 1155.786255,611.827698 1166.832886,601.198303 
	C1167.953979,600.119507 1169.730225,599.721191 1171.202393,599.007080 
M995.618225,989.122253 
	C987.021362,997.470520 978.508911,1005.908752 969.768005,1014.103333 
	C967.601929,1016.133972 967.104858,1018.174194 966.912537,1020.981201 
	C966.507019,1026.899902 966.588440,1033.218384 964.474670,1038.587280 
	C956.951355,1057.696167 940.069946,1069.075562 918.044250,1067.188110 
	C915.836060,1066.998901 912.859863,1068.094482 911.258484,1069.645386 
	C884.594360,1095.469116 858.016235,1121.383301 831.601257,1147.461914 
	C823.582153,1155.378906 816.114197,1163.854248 808.102783,1172.383667 
	C968.286926,1124.553833 1074.486694,1021.615784 1127.237793,863.531799 
	C1126.897583,863.180725 1126.557373,862.829651 1126.217163,862.478577 
	C1082.852539,904.527466 1039.488037,946.576355 995.618225,989.122253 
z"/>
<path fill="#CCE990" opacity="1.000000" stroke="none" 
	d="
M198.198074,752.007019 
	C198.347061,738.037842 198.330856,724.063538 198.762146,710.103088 
	C198.868927,706.647156 198.110779,704.985291 194.957153,703.280457 
	C177.917892,694.069458 166.180145,680.147095 159.201599,662.067566 
	C145.979416,627.812683 158.628952,589.618042 186.953522,569.589722 
	C199.336685,560.833618 213.066772,556.033203 228.121719,555.087891 
	C230.950760,554.910217 232.141617,553.857117 233.121078,551.373169 
	C245.973892,518.777771 262.054077,487.792938 281.907806,458.973816 
	C293.661926,441.911835 306.715210,425.686768 319.932343,409.703979 
	C341.970673,383.054108 367.225952,359.550659 395.206879,339.349396 
	C415.211334,324.906891 435.984406,311.253784 457.583710,299.374237 
	C478.415253,287.916992 500.333008,278.117920 522.524719,269.531799 
	C549.381470,259.140778 577.301392,251.959824 605.758545,246.854233 
	C640.745422,240.577133 675.947632,238.238678 711.407471,239.115967 
	C720.307495,239.336166 729.190979,240.221222 738.533936,241.309113 
	C739.495483,247.460526 734.539978,249.085831 731.440735,252.071289 
	C713.296753,269.549316 695.166016,287.041229 676.985901,304.481689 
	C673.642090,307.689423 670.215820,310.841370 666.564209,313.680206 
	C665.430481,314.561554 663.427368,314.324585 661.908325,314.273438 
	C668.136719,304.371582 674.279114,294.795929 680.581787,284.970337 
	C491.607391,289.925232 335.485229,413.826935 276.296722,567.557617 
	C281.108704,574.208252 286.896606,574.317078 294.079529,571.493347 
	C310.547577,565.019470 327.263306,559.171814 343.909912,553.156738 
	C364.760132,545.622742 385.639343,538.168945 406.510681,530.693420 
	C422.005035,525.143799 437.506744,519.614807 452.971619,514.431274 
	C450.558441,517.425476 448.309662,520.198425 445.777039,522.681885 
	C433.677002,534.546875 421.523560,546.357666 409.341278,558.138306 
	C402.178802,565.064636 394.846039,571.816406 387.752594,578.811707 
	C384.620178,581.900818 381.891663,585.399475 378.684143,588.937012 
	C355.289581,597.603088 332.190765,606.044434 309.643829,614.284119 
	C310.137604,621.571838 311.030396,628.348083 310.899658,635.104492 
	C310.814728,639.497009 311.913605,642.369995 315.963135,644.327393 
	C314.672821,646.574707 313.708649,648.773376 312.105469,650.301758 
	C294.070618,667.495178 275.883057,684.528442 257.850067,701.723816 
	C245.940674,713.080017 234.240936,724.655762 222.397354,736.081360 
	C216.180557,742.078796 209.876892,747.987000 203.556793,753.875671 
	C202.668259,754.703674 201.461823,755.190491 200.164291,755.980164 
	C199.349792,754.334290 198.773941,753.170654 198.198074,752.007019 
z"/>
<path fill="#C6E896" opacity="1.000000" stroke="none" 
	d="
M661.822388,314.599670 
	C663.427368,314.324585 665.430481,314.561554 666.564209,313.680206 
	C670.215820,310.841370 673.642090,307.689423 676.985901,304.481689 
	C695.166016,287.041229 713.296753,269.549316 731.440735,252.071289 
	C734.539978,249.085831 739.495483,247.460526 738.983887,241.424484 
	C749.753113,242.585495 760.521484,244.158081 771.296265,245.685867 
	C776.913208,246.482315 782.541382,247.199814 788.830688,248.198914 
	C790.058716,248.589951 790.620605,248.735046 791.182434,248.880127 
	C791.182434,248.880127 791.114197,248.902039 791.058899,249.236511 
	C789.869995,251.346252 789.029297,253.423386 787.558167,254.850876 
	C769.701172,272.177368 751.773315,289.431244 733.776672,306.612671 
	C732.559265,307.774902 730.641785,308.203796 728.776733,308.780304 
	C727.169373,306.749786 725.835083,304.912720 724.188232,302.645325 
	C718.771851,310.701538 713.586304,318.414368 708.040039,326.173706 
	C706.198608,327.234863 704.570679,328.089355 703.262878,329.291901 
	C697.639526,334.462646 692.083801,339.708069 686.551147,344.976318 
	C665.014954,365.483398 643.461670,385.972778 621.986084,406.543274 
	C610.223389,417.810211 598.628906,429.252594 586.901794,440.556976 
	C583.796753,443.550171 580.593323,446.468994 577.193848,449.111725 
	C576.193726,449.889191 574.365356,449.601196 572.948975,449.454346 
	C593.673523,417.587341 614.329163,386.043488 635.074829,354.558929 
	C643.893555,341.175201 652.900818,327.915649 661.822388,314.599670 
z"/>
<path fill="#76D8E0" opacity="1.000000" stroke="none" 
	d="
M1263.114868,350.734344 
	C1271.902954,356.705109 1277.897461,365.012726 1281.969849,374.585968 
	C1293.332397,401.295868 1289.388428,426.007996 1269.704956,447.114899 
	C1254.807007,463.090393 1235.550903,469.297394 1213.653198,466.479065 
	C1195.456909,464.137085 1180.961182,455.565826 1170.241699,440.152039 
	C1182.143799,428.613678 1194.016846,417.747650 1205.740479,406.722778 
	C1219.406494,393.871368 1233.012207,380.953705 1246.500977,367.916809 
	C1252.226318,362.383179 1257.587891,356.473267 1263.114868,350.734344 
z"/>
<path fill="#C6E895" opacity="1.000000" stroke="none" 
	d="
M198.135864,752.435547 
	C198.773941,753.170654 199.349792,754.334290 200.164291,755.980164 
	C201.461823,755.190491 202.668259,754.703674 203.556793,753.875671 
	C209.876892,747.987000 216.180557,742.078796 222.397354,736.081360 
	C234.240936,724.655762 245.940674,713.080017 257.850067,701.723816 
	C275.883057,684.528442 294.070618,667.495178 312.105469,650.301758 
	C313.708649,648.773376 314.672821,646.574707 316.329132,644.332581 
	C326.058685,648.385803 335.407013,652.764404 344.718628,657.219727 
	C347.579895,658.588806 350.340820,660.167664 352.969208,661.959045 
	C346.921265,668.284180 341.182922,674.436462 335.142761,680.276550 
	C329.843018,685.400879 324.204865,690.175232 318.356201,695.065430 
	C309.958710,691.368103 301.921173,687.709595 293.763794,683.996521 
	C291.141632,686.758789 288.345886,689.349426 286.029694,692.314758 
	C285.075256,693.536682 284.511230,695.715210 284.862091,697.200623 
	C287.373230,707.831787 290.166016,718.396545 292.548370,729.077759 
	C291.283325,729.821106 290.230988,730.355286 289.411896,731.134644 
	C281.281830,738.870605 273.287201,746.752319 265.038116,754.358276 
	C261.934662,757.219788 258.266205,759.468567 254.686798,761.660461 
	C251.162537,748.998596 247.806839,736.672913 244.451157,724.347229 
	C244.322952,724.410583 244.194748,724.473938 244.066544,724.537354 
	C244.066544,738.620911 244.066544,752.704529 244.065063,767.123657 
	C244.308029,768.304138 244.552475,769.149048 244.877731,770.387695 
	C244.924805,771.849854 244.891068,772.918213 244.507721,774.022949 
	C240.731018,776.580688 237.030319,778.806824 233.928879,781.679810 
	C225.179138,789.785034 216.672028,798.152283 208.078003,806.425354 
	C206.606705,807.841736 205.208481,809.542664 203.266312,807.021667 
	C201.535416,788.969177 199.804520,770.916626 198.135864,752.435547 
z"/>
<path fill="#ABE3AF" opacity="1.000000" stroke="none" 
	d="
M1013.897644,248.247971 
	C1006.572998,239.998093 1002.276062,230.219269 1000.273010,219.534821 
	C996.463379,199.214035 1000.972351,180.782257 1014.411072,164.961670 
	C1029.457153,147.248596 1048.937256,139.948669 1071.935303,141.939728 
	C1083.950195,142.979889 1094.534058,147.701813 1103.878174,155.280685 
	C1104.747925,155.986130 1105.751465,156.526657 1106.763916,157.727158 
	C1105.653076,159.894592 1104.671509,161.690720 1103.256470,163.028015 
	C1094.451538,171.349472 1085.456299,179.470642 1076.702393,187.844620 
	C1064.697632,199.328400 1052.856567,210.983353 1040.927612,222.546585 
	C1039.977783,223.467346 1038.829102,224.182648 1037.875366,225.100143 
	C1029.869263,232.802002 1021.887024,240.528687 1013.897644,248.247971 
z"/>
<path fill="#78D9DF" opacity="1.000000" stroke="none" 
	d="
M1117.969238,477.010254 
	C1121.303345,478.013550 1124.588623,479.239227 1127.979736,479.983032 
	C1146.177490,483.974640 1159.675293,493.820099 1166.971069,511.594849 
	C1161.626587,516.348328 1156.399292,520.421265 1151.620117,524.965576 
	C1139.710083,536.290100 1128.010010,547.835388 1116.205566,559.271423 
	C1115.137085,560.306580 1113.823486,561.095703 1112.796021,562.164734 
	C1106.508667,568.706787 1100.271240,575.296753 1093.664429,581.867065 
	C1083.701782,577.093079 1076.281616,569.957703 1071.009155,560.680115 
	C1064.683472,549.549255 1062.137817,537.682556 1065.176270,524.882690 
	C1066.499634,524.215149 1067.615967,523.762817 1068.437622,522.994995 
	C1074.867310,516.987061 1081.265869,510.945007 1087.625000,504.862183 
	C1096.506836,496.366241 1105.324707,487.803314 1114.233032,479.335297 
	C1115.274292,478.345490 1116.714111,477.775055 1117.969238,477.010254 
z"/>
<path fill="#80DAD7" opacity="1.000000" stroke="none" 
	d="
M1262.977051,350.432007 
	C1257.587891,356.473267 1252.226318,362.383179 1246.500977,367.916809 
	C1233.012207,380.953705 1219.406494,393.871368 1205.740479,406.722778 
	C1194.016846,417.747650 1182.143799,428.613678 1170.142944,439.828796 
	C1163.182739,432.219910 1159.727661,422.849823 1158.038574,412.785858 
	C1154.568359,392.110107 1159.577881,373.581024 1173.776733,358.200958 
	C1190.904297,339.648682 1212.125244,332.590637 1237.133179,337.945160 
	C1246.679688,339.989258 1255.235107,344.033234 1262.977051,350.432007 
z"/>
<path fill="#84DBD3" opacity="1.000000" stroke="none" 
	d="
M412.860291,1144.066162 
	C397.662537,1132.298706 382.464752,1120.531250 367.179871,1108.144165 
	C368.172791,1106.072144 369.074554,1104.434937 370.359741,1103.195312 
	C387.125732,1087.022705 403.942261,1070.902466 420.763733,1054.787476 
	C421.599609,1053.986816 422.716156,1053.465942 423.500000,1052.626343 
	C429.011627,1046.722290 434.470184,1040.768677 440.274780,1034.608765 
	C442.712616,1034.022583 444.813904,1033.606812 446.931213,1033.302612 
	C464.271759,1030.810669 481.615326,1028.339355 498.881714,1026.198486 
	C496.977112,1028.417114 495.207947,1030.360840 493.310852,1032.170654 
	C479.712738,1045.143066 466.024048,1058.021606 452.535614,1071.106812 
	C450.265381,1073.309082 448.824219,1076.366089 446.666656,1079.247559 
	C434.618866,1081.342041 422.904419,1083.217163 410.396454,1085.219360 
	C412.524139,1086.960327 413.752319,1088.052246 415.067047,1089.027344 
	C425.395355,1096.688110 435.740204,1104.326782 445.840698,1112.206665 
	C434.687714,1122.982788 423.774017,1133.524536 412.860291,1144.066162 
z"/>
<path fill="#A4E1B7" opacity="1.000000" stroke="none" 
	d="
M1014.018677,248.553116 
	C1021.887024,240.528687 1029.869263,232.802002 1037.875366,225.100143 
	C1038.829102,224.182648 1039.977783,223.467346 1040.927612,222.546585 
	C1052.856567,210.983353 1064.697632,199.328400 1076.702393,187.844620 
	C1085.456299,179.470642 1094.451538,171.349472 1103.256470,163.028015 
	C1104.671509,161.690720 1105.653076,159.894592 1106.988525,157.980881 
	C1114.435425,163.101044 1119.698486,170.294434 1123.276611,178.459091 
	C1125.875854,184.390152 1127.135254,190.908417 1128.619507,197.670624 
	C1122.092651,203.700195 1115.792603,209.071213 1109.811157,214.776367 
	C1091.799927,231.955856 1073.890137,249.242233 1056.022461,266.571014 
	C1054.677368,267.875641 1053.976562,269.844604 1052.976318,271.504761 
	C1037.271484,268.687866 1024.316772,261.154633 1014.018677,248.553116 
z"/>
<path fill="#A0E0B9" opacity="1.000000" stroke="none" 
	d="
M292.955383,1027.085815 
	C283.176727,1012.187805 273.398102,997.289795 263.810791,981.769165 
	C273.375549,972.223938 282.699310,963.247925 292.170502,954.430298 
	C293.775177,952.936340 296.013733,952.123230 298.241882,951.198853 
	C301.745148,956.908813 304.965881,962.415405 308.186646,967.922058 
	C308.381165,967.805359 308.575684,967.688721 308.770203,967.572021 
	C307.532379,962.041443 306.294556,956.510803 305.384369,950.898010 
	C309.573761,947.477600 313.572479,944.283630 317.269440,940.771973 
	C325.654724,932.807312 333.891541,924.686340 342.473145,916.886780 
	C347.410248,934.758850 352.062958,952.373047 356.367432,970.023193 
	C354.160126,971.063721 351.971008,971.721069 350.492401,973.126160 
	C333.691711,989.092102 317.021179,1005.194824 300.252563,1021.194763 
	C297.998566,1023.345398 295.396362,1025.131104 292.955383,1027.085815 
M309.442780,969.416687 
	C309.442780,969.416687 309.524048,969.367371 309.442780,969.416687 
z"/>
<path fill="#6DD6E8" opacity="1.000000" stroke="none" 
	d="
M1094.017090,581.870605 
	C1100.271240,575.296753 1106.508667,568.706787 1112.796021,562.164734 
	C1113.823486,561.095703 1115.137085,560.306580 1116.205566,559.271423 
	C1128.010010,547.835388 1139.710083,536.290100 1151.620117,524.965576 
	C1156.399292,520.421265 1161.626587,516.348328 1167.005127,511.968628 
	C1173.846924,524.582825 1173.297363,537.691284 1169.432617,550.922913 
	C1168.607788,553.746948 1167.803955,556.957764 1165.925049,559.019714 
	C1160.953979,564.475342 1161.828979,569.894897 1164.173950,576.061279 
	C1166.924927,583.294922 1168.949585,590.804749 1171.245728,598.600952 
	C1169.730225,599.721191 1167.953979,600.119507 1166.832886,601.198303 
	C1155.786255,611.827698 1144.848389,622.570068 1133.480713,633.265625 
	C1129.177368,619.389526 1125.156372,605.559265 1121.451538,591.644775 
	C1120.546631,588.245972 1118.554321,588.282593 1115.755493,587.699829 
	C1108.422729,586.173035 1101.252197,583.866394 1094.017090,581.870605 
z"/>
<path fill="#BEE79D" opacity="1.000000" stroke="none" 
	d="
M729.049866,308.973785 
	C730.641785,308.203796 732.559265,307.774902 733.776672,306.612671 
	C751.773315,289.431244 769.701172,272.177368 787.558167,254.850876 
	C789.029297,253.423386 789.869995,251.346252 791.049561,249.201904 
	C800.353027,250.760498 809.619995,252.644119 818.862305,254.642029 
	C821.735840,255.263214 824.542358,256.194122 827.952820,257.302734 
	C829.015625,257.749939 829.505127,257.877655 829.994690,258.005371 
	C830.886353,258.119537 831.777954,258.233673 832.759521,258.975464 
	C831.531250,261.270264 830.384094,263.114899 828.867493,264.576141 
	C817.952026,275.093536 806.961731,285.533264 795.584106,296.026855 
	C794.393311,295.809082 793.613586,295.561981 792.683716,295.248474 
	C792.327026,295.105072 792.114014,295.055145 791.526123,295.045746 
	C790.432007,294.945099 789.706482,294.830994 788.800659,294.585815 
	C788.369873,294.292358 788.104614,294.159332 787.419800,294.050903 
	C782.382202,293.260986 777.749451,292.475830 772.062012,291.511902 
	C779.210999,302.555603 785.697510,312.575958 792.002258,322.907867 
	C785.450378,329.739197 779.246582,336.433563 772.650940,342.716522 
	C768.364319,346.799988 763.506714,350.283997 758.596680,353.887451 
	C756.873657,351.528320 755.478210,349.305725 754.040894,347.110413 
	C745.716003,334.394653 737.381287,321.685303 729.049866,308.973785 
z"/>
<path fill="#97DFC2" opacity="1.000000" stroke="none" 
	d="
M293.044800,1027.413574 
	C295.396362,1025.131104 297.998566,1023.345398 300.252563,1021.194763 
	C317.021179,1005.194824 333.691711,989.092102 350.492401,973.126160 
	C351.971008,971.721069 354.160126,971.063721 356.517731,970.395142 
	C357.845642,973.748474 358.706573,976.757385 359.499237,979.784180 
	C363.881348,996.518188 368.246826,1013.256531 372.301208,1030.085449 
	C369.991577,1031.616211 367.795776,1032.843262 366.038910,1034.527954 
	C354.679321,1045.421387 343.435242,1056.435059 332.090363,1067.343872 
	C330.940521,1068.449463 329.373016,1069.120728 327.999359,1069.993530 
	C320.670288,1061.572510 313.209625,1053.261230 306.059723,1044.690796 
	C301.512573,1039.240112 297.426849,1033.404419 293.044800,1027.413574 
z"/>
<path fill="#8DDCCA" opacity="1.000000" stroke="none" 
	d="
M328.138885,1070.299072 
	C329.373016,1069.120728 330.940521,1068.449463 332.090363,1067.343872 
	C343.435242,1056.435059 354.679321,1045.421387 366.038910,1034.527954 
	C367.795776,1032.843262 369.991577,1031.616211 372.462341,1030.452637 
	C374.119659,1034.982666 375.299042,1039.237671 376.589844,1043.894531 
	C384.663361,1042.686279 392.298553,1041.495972 399.948425,1040.409302 
	C413.276093,1038.516235 426.612793,1036.686890 439.945709,1034.830933 
	C434.470184,1040.768677 429.011627,1046.722290 423.500000,1052.626343 
	C422.716156,1053.465942 421.599609,1053.986816 420.763733,1054.787476 
	C403.942261,1070.902466 387.125732,1087.022705 370.359741,1103.195312 
	C369.074554,1104.434937 368.172791,1106.072144 366.999390,1107.868896 
	C354.030121,1095.677002 341.154266,1083.140869 328.138885,1070.299072 
z"/>
<path fill="#6DD6E8" opacity="1.000000" stroke="none" 
	d="
M574.021606,1169.985474 
	C572.935120,1171.375488 571.991943,1172.912598 570.739685,1174.132568 
	C559.958435,1184.635742 549.121338,1195.081787 538.120972,1205.834351 
	C523.395264,1200.698120 508.770721,1195.471069 494.336761,1189.762207 
	C487.156006,1186.921997 480.324707,1183.198242 473.193909,1179.271729 
	C478.733154,1172.757812 484.450958,1166.881348 490.083618,1160.924561 
	C495.132996,1155.584473 500.088684,1150.155518 505.452118,1144.834106 
	C511.582733,1147.351562 517.244873,1150.085693 523.130554,1152.195923 
	C540.045776,1158.260864 557.051453,1164.073608 574.021606,1169.985474 
z"/>
<path fill="#78D9DF" opacity="1.000000" stroke="none" 
	d="
M505.085754,1144.765869 
	C500.088684,1150.155518 495.132996,1155.584473 490.083618,1160.924561 
	C484.450958,1166.881348 478.733154,1172.757812 472.961151,1179.026611 
	C452.987885,1167.803711 433.105927,1156.223267 413.042114,1144.354492 
	C423.774017,1133.524536 434.687714,1122.982788 446.185272,1112.259033 
	C455.387024,1117.299805 463.863403,1122.776489 472.659088,1127.680542 
	C483.327087,1133.628418 494.264771,1139.092407 505.085754,1144.765869 
z"/>
<path fill="#83DAD4" opacity="1.000000" stroke="none" 
	d="
M1117.891357,476.670837 
	C1116.714111,477.775055 1115.274292,478.345490 1114.233032,479.335297 
	C1105.324707,487.803314 1096.506836,496.366241 1087.625000,504.862183 
	C1081.265869,510.945007 1074.867310,516.987061 1068.437622,522.994995 
	C1067.615967,523.762817 1066.499634,524.215149 1065.086914,524.463135 
	C1065.464355,515.455872 1069.241699,507.958282 1074.333496,501.195343 
	C1076.481567,498.342285 1076.818481,496.486084 1074.694946,493.529358 
	C1065.826050,481.180786 1057.188599,468.665955 1048.788330,456.034943 
	C1055.085205,450.393616 1061.040894,444.908478 1067.040649,439.471741 
	C1072.058716,434.924438 1077.128174,430.433899 1082.175049,425.918274 
	C1094.054443,442.722656 1105.933960,459.527039 1117.891357,476.670837 
z"/>
<path fill="#BEE79D" opacity="1.000000" stroke="none" 
	d="
M203.248459,807.440430 
	C205.208481,809.542664 206.606705,807.841736 208.078003,806.425354 
	C216.672028,798.152283 225.179138,789.785034 233.928879,781.679810 
	C237.030319,778.806824 240.731018,776.580688 244.616043,774.430420 
	C245.929428,782.199158 246.524216,789.638489 247.698532,796.985168 
	C249.701996,809.518982 252.069199,821.994629 254.163254,834.853638 
	C252.754013,836.916077 251.656540,838.816284 250.143402,840.289551 
	C243.244705,847.006653 236.330200,853.714600 229.215607,860.200195 
	C225.316940,863.754211 221.009811,866.860168 216.886841,870.168213 
	C216.464539,869.203491 216.042221,868.238708 215.693024,866.686646 
	C215.603622,865.736023 215.441116,865.372742 215.278610,865.009521 
	C211.262619,845.959412 207.246613,826.909363 203.248459,807.440430 
z"/>
<path fill="#B4E3A6" opacity="1.000000" stroke="none" 
	d="
M216.876495,870.564575 
	C221.009811,866.860168 225.316940,863.754211 229.215607,860.200195 
	C236.330200,853.714600 243.244705,847.006653 250.143402,840.289551 
	C251.656540,838.816284 252.754013,836.916077 254.364136,835.203613 
	C261.031830,856.123840 267.378235,877.052795 273.411926,898.083008 
	C269.671265,901.017883 266.112488,903.708984 262.841034,906.712952 
	C254.445709,914.421692 246.177872,922.269287 237.859085,930.061401 
	C234.664505,922.501831 231.054489,915.086365 228.371384,907.349426 
	C224.204788,895.334900 220.669220,883.101501 216.876495,870.564575 
z"/>
<path fill="#97DFC2" opacity="1.000000" stroke="none" 
	d="
M997.537231,342.780914 
	C1006.509521,350.036896 1015.653076,357.093750 1024.396973,364.615173 
	C1030.781250,370.106812 1036.639282,376.210236 1042.850342,382.644531 
	C1042.157104,384.485443 1041.539062,385.922089 1040.502930,386.928314 
	C1032.384277,394.812256 1024.270142,402.705780 1015.937012,410.359436 
	C1014.352783,411.814514 1011.804443,412.219818 1009.414917,412.956177 
	C994.338684,400.066864 979.548401,387.330841 964.934143,374.267639 
	C975.919128,363.553955 986.728149,353.167419 997.537231,342.780914 
z"/>
<path fill="#AAE2B0" opacity="1.000000" stroke="none" 
	d="
M237.915100,930.429199 
	C246.177872,922.269287 254.445709,914.421692 262.841034,906.712952 
	C266.112488,903.708984 269.671265,901.017883 273.589783,898.418579 
	C276.235382,903.844727 278.218842,909.116089 280.579559,914.212646 
	C286.279053,926.517029 292.154755,938.739868 297.959412,950.995544 
	C296.013733,952.123230 293.775177,952.936340 292.170502,954.430298 
	C282.699310,963.247925 273.375549,972.223938 263.738495,981.441528 
	C254.973602,964.756592 246.472351,947.776794 237.915100,930.429199 
z"/>
<path fill="#8DDCCA" opacity="1.000000" stroke="none" 
	d="
M1009.700928,413.109436 
	C1011.804443,412.219818 1014.352783,411.814514 1015.937012,410.359436 
	C1024.270142,402.705780 1032.384277,394.812256 1040.502930,386.928314 
	C1041.539062,385.922089 1042.157104,384.485443 1043.059814,382.883118 
	C1055.042725,395.504272 1066.940918,408.484802 1078.816284,421.486115 
	C1079.914429,422.688354 1080.868164,424.022675 1082.031982,425.606934 
	C1077.128174,430.433899 1072.058716,434.924438 1067.040649,439.471741 
	C1061.040894,444.908478 1055.085205,450.393616 1048.518799,455.858459 
	C1035.185181,441.609222 1022.442993,427.359344 1009.700928,413.109436 
z"/>
<path fill="#AAE2B0" opacity="1.000000" stroke="none" 
	d="
M911.812317,289.059662 
	C926.436218,297.151550 941.060120,305.243439 955.765076,313.973022 
	C950.257507,320.389008 944.694580,326.192413 939.072693,331.938110 
	C934.050110,337.071320 928.962402,342.140808 923.559692,347.140747 
	C918.346008,344.307648 913.545044,341.439667 908.591675,338.864838 
	C898.690674,333.718323 888.706238,328.732422 878.931030,323.345154 
	C887.200378,315.252686 895.419067,307.618927 903.328369,299.677063 
	C906.506104,296.486237 909.004639,292.619019 911.812317,289.059662 
z"/>
<path fill="#A4E1B7" opacity="1.000000" stroke="none" 
	d="
M923.903442,347.238464 
	C928.962402,342.140808 934.050110,337.071320 939.072693,331.938110 
	C944.694580,326.192413 950.257507,320.389008 955.930786,314.275330 
	C966.283020,320.762512 976.584961,327.534363 986.799744,334.435211 
	C990.368042,336.845886 993.721375,339.574677 997.355042,342.469543 
	C986.728149,353.167419 975.919128,363.553955 964.618164,374.112152 
	C950.718628,365.268707 937.311035,356.253601 923.903442,347.238464 
z"/>
<path fill="#9DE0BD" opacity="1.000000" stroke="none" 
	d="
M1053.396973,271.637390 
	C1053.976562,269.844604 1054.677368,267.875641 1056.022461,266.571014 
	C1073.890137,249.242233 1091.799927,231.955856 1109.811157,214.776367 
	C1115.792603,209.071213 1122.092651,203.700195 1128.570068,198.084930 
	C1131.624268,207.960480 1130.097656,217.859421 1126.888550,227.205673 
	C1118.745728,250.921249 1102.092529,265.905182 1077.514282,271.019287 
	C1069.893433,272.605042 1061.731812,271.592834 1053.396973,271.637390 
z"/>
<path fill="#B2E3A8" opacity="1.000000" stroke="none" 
	d="
M911.572998,288.796936 
	C909.004639,292.619019 906.506104,296.486237 903.328369,299.677063 
	C895.419067,307.618927 887.200378,315.252686 878.543762,323.308044 
	C862.668518,317.731049 847.355408,311.856171 832.396912,305.946838 
	C833.532837,305.652618 834.517029,305.610992 835.065613,305.100952 
	C846.384644,294.576508 857.663025,284.008362 868.906433,273.403168 
	C869.464417,272.876892 869.631348,271.936157 869.980347,271.188416 
	C882.416382,276.445709 894.850891,281.706451 907.290527,286.955170 
	C908.623108,287.517426 909.985229,288.009521 911.572998,288.796936 
z"/>
<path fill="#B9E6A2" opacity="1.000000" stroke="none" 
	d="
M869.596069,271.099823 
	C869.631348,271.936157 869.464417,272.876892 868.906433,273.403168 
	C857.663025,284.008362 846.384644,294.576508 835.065613,305.100952 
	C834.517029,305.610992 833.532837,305.652618 832.023071,305.891235 
	C819.528137,302.579254 807.761658,299.288391 795.995117,295.997559 
	C806.961731,285.533264 817.952026,275.093536 828.867493,264.576141 
	C830.384094,263.114899 831.531250,261.270264 832.934204,259.267090 
	C845.083252,262.957825 857.147522,266.984528 869.596069,271.099823 
z"/>
<path fill="#B9E6A2" opacity="1.000000" stroke="none" 
	d="
M829.833374,257.784302 
	C829.505127,257.877655 829.015625,257.749939 828.303589,257.499268 
	C828.611389,257.438599 829.141663,257.500885 829.833374,257.784302 
z"/>
<path fill="#BEE79D" opacity="1.000000" stroke="none" 
	d="
M790.957153,248.676331 
	C790.620605,248.735046 790.058716,248.589951 789.252136,248.284393 
	C789.582214,248.240112 790.156982,248.356323 790.957153,248.676331 
z"/>
<path fill="#B4E3A6" opacity="1.000000" stroke="none" 
	d="
M215.267273,865.328003 
	C215.441116,865.372742 215.603622,865.736023 215.839233,866.390381 
	C215.693527,866.336548 215.474747,865.991516 215.267273,865.328003 
z"/>
<path fill="#0C3041" opacity="1.000000" stroke="none" 
	d="
M795.584106,296.026855 
	C807.761658,299.288391 819.528137,302.579254 831.668457,305.925720 
	C847.355408,311.856171 862.668518,317.731049 878.368896,323.643066 
	C888.706238,328.732422 898.690674,333.718323 908.591675,338.864838 
	C913.545044,341.439667 918.346008,344.307648 923.559692,347.140747 
	C937.311035,356.253601 950.718628,365.268707 964.442200,374.439331 
	C979.548401,387.330841 994.338684,400.066864 1009.414917,412.956177 
	C1022.442993,427.359344 1035.185181,441.609222 1048.196777,456.035583 
	C1057.188599,468.665955 1065.826050,481.180786 1074.694946,493.529358 
	C1076.818481,496.486084 1076.481567,498.342285 1074.333496,501.195343 
	C1069.241699,507.958282 1065.464355,515.455872 1064.743408,524.532227 
	C1062.137817,537.682556 1064.683472,549.549255 1071.009155,560.680115 
	C1076.281616,569.957703 1083.701782,577.093079 1093.664307,581.867004 
	C1101.252197,583.866394 1108.422729,586.173035 1115.755493,587.699829 
	C1118.554321,588.282593 1120.546631,588.245972 1121.451538,591.644775 
	C1125.156372,605.559265 1129.177368,619.389526 1133.286865,633.616821 
	C1141.984253,671.075256 1145.731445,708.646362 1144.808716,746.682129 
	C1144.753418,748.957397 1144.360107,751.224426 1144.108521,753.645203 
	C1112.807983,747.584778 1081.987427,741.613464 1051.163696,735.658020 
	C1049.210083,735.280579 1047.232666,735.026733 1044.510010,734.571289 
	C1021.177734,730.046631 998.601807,725.665894 975.621582,721.179688 
	C966.017517,719.336243 956.817749,717.598389 946.695374,715.686218 
	C978.556702,681.127441 1009.560059,647.499207 1040.717651,613.703796 
	C1038.261475,611.668274 1036.274170,610.021301 1034.108154,608.113159 
	C1024.980469,599.510254 1016.031677,591.168518 1007.061829,582.807251 
	C974.999023,617.606140 943.305664,652.004028 911.111633,686.945374 
	C909.855286,681.345215 908.807312,676.673950 907.732666,671.602295 
	C903.396484,649.134399 899.086975,627.066772 894.771667,604.597412 
	C893.407898,596.879822 892.140930,589.545593 890.671509,582.252136 
	C888.229492,570.130737 885.657410,558.035522 883.201782,545.508911 
	C880.251831,528.418762 877.240234,511.748993 874.526978,494.993439 
	C875.888062,493.957275 876.950867,493.006836 878.316223,491.918091 
	C880.393799,489.845337 882.168884,487.910858 884.254761,485.840820 
	C898.939514,468.149536 901.057556,444.632355 889.979492,424.636932 
	C888.909302,422.775909 887.965881,421.203156 886.868103,419.746765 
	C878.043091,408.038452 866.903137,400.039917 851.580505,398.028809 
	C846.007324,397.392548 841.096741,397.763275 838.036377,391.413330 
	C834.499817,384.075378 829.064636,377.652496 824.315857,370.504242 
	C821.292236,365.758331 818.463867,361.301819 815.510010,356.930084 
	C807.763916,345.465759 799.963013,334.038422 792.184021,322.596313 
	C785.697510,312.575958 779.210999,302.555603 772.062012,291.511902 
	C777.749451,292.475830 782.382202,293.260986 787.546021,294.263580 
	C788.077148,294.481018 788.487854,294.756744 788.487854,294.756744 
	C788.487854,294.756744 788.980957,294.716919 788.980957,294.716919 
	C789.706482,294.830994 790.432007,294.945099 791.645630,295.193970 
	C792.133789,295.328735 792.486755,295.468567 792.486755,295.468567 
	C792.486755,295.468567 792.833801,295.314880 792.833801,295.314880 
	C793.613586,295.561981 794.393311,295.809082 795.584106,296.026855 
z"/>
<path fill="#0C3041" opacity="1.000000" stroke="none" 
	d="
M887.379272,883.018433 
	C887.938904,891.782166 888.419556,900.551758 889.077637,909.308105 
	C889.972900,921.220581 891.026917,933.121094 891.970215,945.030090 
	C892.965149,957.591858 893.876709,970.160156 894.886902,982.720581 
	C895.715637,993.024963 889.719604,999.268311 879.380005,998.807556 
	C853.841309,997.669312 828.304749,996.472351 802.761230,995.452698 
	C787.156189,994.829712 771.539795,994.491394 755.022217,994.023438 
	C742.045044,993.379395 729.979980,992.581055 717.901978,992.131104 
	C699.326050,991.438904 680.741211,990.985962 661.779419,990.264160 
	C658.908630,990.064087 656.393005,989.793457 653.934692,990.056885 
	C650.596191,990.414612 648.479370,989.101562 646.471741,986.502258 
	C636.625000,973.753418 623.762817,965.652832 607.614868,962.093628 
	C603.488281,961.387817 599.672302,959.997620 596.032104,960.362427 
	C589.962769,960.970764 588.356750,958.055054 586.958069,952.909058 
	C583.585754,940.501831 579.499390,928.288574 575.632202,915.630615 
	C574.073547,910.213257 572.623657,905.150146 571.086121,900.113831 
	C566.481812,885.031616 561.843384,869.959900 557.157715,854.505066 
	C555.660950,849.184021 554.523682,844.126892 552.681274,839.341248 
	C551.497375,836.265991 552.244568,835.257996 554.949646,833.647949 
	C560.329834,830.445740 565.739563,827.005493 570.294434,822.759583 
	C582.371765,811.501831 587.921021,797.014282 589.214661,780.416504 
	C606.579529,779.199951 623.787231,777.994385 641.421875,776.862549 
	C656.044861,775.922546 670.245605,774.969849 684.435486,773.876343 
	C696.296753,772.962219 708.145325,771.883301 720.449707,770.953552 
	C751.265320,768.956177 781.630737,766.882629 812.434082,764.880066 
	C821.470337,764.324402 830.068176,763.688538 838.667419,763.073059 
	C851.737610,762.137329 864.808838,761.215759 877.892334,760.724854 
	C879.312622,779.107727 880.720093,797.054016 882.058960,815.431763 
	C882.227356,818.827576 882.463501,821.792053 882.701538,824.756348 
	C884.260498,844.177063 885.819885,863.597717 887.379272,883.018433 
z"/>
<path fill="#0C3142" opacity="1.000000" stroke="none" 
	d="
M1002.004761,772.833740 
	C1012.527161,774.885315 1023.043945,776.966614 1033.573120,778.982788 
	C1063.437500,784.701355 1093.308350,790.387268 1123.170654,796.117188 
	C1124.397949,796.352661 1125.564941,796.901978 1127.418091,797.527161 
	C1065.127319,857.961609 1003.235596,918.008850 940.636780,978.742126 
	C940.072937,973.803589 939.455444,969.695862 939.156189,965.565002 
	C937.055664,936.572937 935.061707,907.573059 932.942749,878.582336 
	C932.193115,868.326355 931.189392,858.088989 930.224426,846.963806 
	C929.432190,836.978943 928.722839,827.872986 928.000977,818.767944 
	C926.949890,805.511841 925.889832,792.256409 924.902588,778.567444 
	C924.410767,771.522095 923.849854,764.910095 923.259705,757.953064 
	C928.420776,758.750732 933.073792,759.469849 938.027222,760.448730 
	C959.553345,764.750244 980.779053,768.791992 1002.004761,772.833740 
z"/>
<path fill="#0D3142" opacity="1.000000" stroke="none" 
	d="
M995.870850,988.873779 
	C1039.488037,946.576355 1082.852539,904.527466 1126.217163,862.478577 
	C1126.557373,862.829651 1126.897583,863.180725 1127.237793,863.531799 
	C1074.486694,1021.615784 968.286926,1124.553833 808.102783,1172.383667 
	C816.114197,1163.854248 823.582153,1155.378906 831.601257,1147.461914 
	C858.016235,1121.383301 884.594360,1095.469116 911.258484,1069.645386 
	C912.859863,1068.094482 915.836060,1066.998901 918.044250,1067.188110 
	C940.069946,1069.075562 956.951355,1057.696167 964.474670,1038.587280 
	C966.588440,1033.218384 966.507019,1026.899902 966.912537,1020.981201 
	C967.104858,1018.174194 967.601929,1016.133972 969.768005,1014.103333 
	C978.508911,1005.908752 987.021362,997.470520 995.870850,988.873779 
z"/>
<path fill="#0D3142" opacity="1.000000" stroke="none" 
	d="
M505.452118,1144.834106 
	C494.264771,1139.092407 483.327087,1133.628418 472.659088,1127.680542 
	C463.863403,1122.776489 455.387024,1117.299805 446.424561,1112.024536 
	C435.740204,1104.326782 425.395355,1096.688110 415.067047,1089.027344 
	C413.752319,1088.052246 412.524139,1086.960327 410.396454,1085.219360 
	C422.904419,1083.217163 434.618866,1081.342041 447.099243,1079.298096 
	C464.618652,1076.528564 481.372131,1073.927856 498.560303,1071.326660 
	C509.142700,1069.885376 519.320801,1068.622681 529.420593,1066.900757 
	C532.695862,1066.342407 534.525818,1067.066406 536.480042,1069.704468 
	C543.237366,1078.826294 551.164734,1086.665283 562.284851,1091.158936 
	C577.520386,1099.507080 593.352478,1100.084229 609.432495,1096.143555 
	C613.444946,1095.160156 615.666565,1095.750244 618.264282,1098.713989 
	C622.938904,1104.047485 628.043701,1109.003906 632.968811,1114.117798 
	C641.828308,1123.557007 650.680542,1133.003052 659.549011,1142.433716 
	C672.971497,1156.707275 686.405212,1170.970215 700.425293,1185.865723 
	C693.589966,1185.865723 687.391907,1186.002686 681.201538,1185.843018 
	C647.590271,1184.975830 614.556335,1179.913940 581.929260,1171.979004 
	C579.536865,1171.397217 577.186462,1170.642700 574.419067,1169.977051 
	C557.051453,1164.073608 540.045776,1158.260864 523.130554,1152.195923 
	C517.244873,1150.085693 511.582733,1147.351562 505.452118,1144.834106 
z"/>
<path fill="#0D3142" opacity="1.000000" stroke="none" 
	d="
M715.017090,1037.839355 
	C731.783325,1038.550537 748.547485,1039.316650 765.316284,1039.961792 
	C800.354187,1041.309570 835.394653,1042.593262 871.966919,1043.960571 
	C829.362427,1085.600586 787.646240,1126.372437 745.865540,1167.207275 
	C718.627625,1138.405640 691.795166,1110.032837 664.507324,1081.197998 
	C659.733582,1076.134399 655.415283,1071.532715 651.726807,1067.602173 
	C654.883728,1058.415894 658.442078,1050.020996 660.497498,1041.273071 
	C661.561340,1036.745483 663.100037,1035.767578 667.215698,1035.962158 
	C683.143494,1036.715332 699.082336,1037.233643 715.017090,1037.839355 
z"/>
<path fill="#6DD6E8" opacity="1.000000" stroke="none" 
	d="
M715.023743,1037.472900 
	C699.082336,1037.233643 683.143494,1036.715332 667.215698,1035.962158 
	C663.100037,1035.767578 661.561340,1036.745483 660.497498,1041.273071 
	C658.442078,1050.020996 654.883728,1058.415894 651.726807,1067.602173 
	C655.415283,1071.532715 659.733582,1076.134399 664.220154,1081.004395 
	C659.202454,1086.552734 653.993530,1091.810425 648.836975,1097.119019 
	C643.578247,1102.532715 638.371094,1107.996704 633.055054,1113.778198 
	C628.043701,1109.003906 622.938904,1104.047485 618.264282,1098.713989 
	C615.666565,1095.750244 613.444946,1095.160156 609.432495,1096.143555 
	C593.352478,1100.084229 577.520386,1099.507080 562.315918,1090.804932 
	C563.343750,1088.353271 564.343018,1086.187744 565.943359,1084.646240 
	C579.688965,1071.404419 593.583618,1058.317383 607.352295,1045.099365 
	C618.971558,1033.944702 630.470886,1022.665161 642.053040,1011.471680 
	C643.838440,1009.746094 645.942261,1008.333374 647.625305,1006.521790 
	C652.544373,1001.227234 657.325195,995.804199 662.160156,990.431519 
	C680.741211,990.985962 699.326050,991.438904 717.901978,992.131104 
	C729.979980,992.581055 742.045044,993.379395 754.558960,994.091858 
	C748.017456,1001.430359 741.105713,1008.770569 734.025330,1015.944336 
	C728.308350,1021.736755 722.328308,1027.269653 716.617493,1033.067871 
	C715.683838,1034.015747 715.539551,1035.740723 715.023743,1037.472900 
z"/>
<path fill="#6AD5EB" opacity="1.000000" stroke="none" 
	d="
M924.833557,779.000732 
	C925.889832,792.256409 926.949890,805.511841 928.000977,818.767944 
	C928.722839,827.872986 929.432190,836.978943 930.099487,846.544922 
	C925.466248,850.405396 920.573303,853.465759 916.360046,857.277405 
	C907.981689,864.856750 900.001282,872.874878 891.789124,880.640503 
	C890.748535,881.624573 889.303589,882.181030 887.712585,882.976990 
	C885.819885,863.597717 884.260498,844.177063 882.701538,824.756348 
	C882.463501,821.792053 882.227356,818.827576 882.383362,815.339722 
	C885.650146,812.578125 888.724121,810.552307 891.361755,808.063904 
	C900.680847,799.272278 909.786133,790.253418 919.145203,781.505493 
	C920.573669,780.170288 922.914612,779.811218 924.833557,779.000732 
z"/>
<path fill="#6AD5EB" opacity="1.000000" stroke="none" 
	d="
M1002.038147,772.485596 
	C980.779053,768.791992 959.553345,764.750244 938.315796,760.245117 
	C944.900940,753.310852 951.597046,746.937073 958.066345,740.340881 
	C964.176819,734.110596 970.048889,727.646484 976.025879,721.285217 
	C998.601807,725.665894 1021.177734,730.046631 1044.107544,734.650208 
	C1036.394531,735.297668 1032.554321,742.213135 1027.246704,746.587097 
	C1019.240173,753.184998 1012.027771,760.753540 1004.578430,768.012756 
	C1003.462585,769.100159 1002.893555,770.748657 1002.038147,772.485596 
z"/>
<path fill="#0C3041" opacity="1.000000" stroke="none" 
	d="
M661.908386,314.273438 
	C652.900818,327.915649 643.893555,341.175201 635.074829,354.558929 
	C614.329163,386.043488 593.673523,417.587341 572.635498,449.602234 
	C569.526062,454.169067 566.174866,457.965576 564.113770,462.366364 
	C558.783997,473.745941 550.272400,480.711243 537.629700,483.183105 
	C528.682678,486.433868 520.123169,489.719269 511.511200,492.861023 
	C492.022919,499.970520 472.508820,507.009155 453.005188,514.076599 
	C437.506744,519.614807 422.005035,525.143799 406.510681,530.693420 
	C385.639343,538.168945 364.760132,545.622742 343.909912,553.156738 
	C327.263306,559.171814 310.547577,565.019470 294.079529,571.493347 
	C286.896606,574.317078 281.108704,574.208252 276.296722,567.557617 
	C335.485229,413.826935 491.607391,289.925232 680.581787,284.970337 
	C674.279114,294.795929 668.136719,304.371582 661.908386,314.273438 
z"/>
<path fill="#0C3041" opacity="1.000000" stroke="none" 
	d="
M353.147675,661.650513 
	C350.340820,660.167664 347.579895,658.588806 344.718628,657.219727 
	C335.407013,652.764404 326.058685,648.385803 316.358521,643.972534 
	C311.913605,642.369995 310.814728,639.497009 310.899658,635.104492 
	C311.030396,628.348083 310.137604,621.571838 309.643829,614.284119 
	C332.190765,606.044434 355.289581,597.603088 379.056274,588.918152 
	C398.406311,581.980042 417.104614,575.330078 435.764038,568.572754 
	C445.534943,565.034302 455.237549,561.307312 465.334534,557.612000 
	C475.224152,554.201111 484.751740,550.848145 494.275909,547.485474 
	C510.471680,541.767334 526.665344,536.043213 542.780579,530.703125 
	C540.238953,550.397522 537.776611,569.710510 535.171509,589.249756 
	C535.056580,589.652161 535.084412,589.828308 535.015503,590.399170 
	C534.929321,592.144653 534.939880,593.495544 534.716064,595.094482 
	C534.383667,596.222778 534.285706,597.103027 534.105957,598.357056 
	C533.995056,599.750244 533.965881,600.769714 533.674805,601.968018 
	C533.354980,602.758362 533.296997,603.369995 533.145996,604.389709 
	C532.939697,606.185913 532.826599,607.574036 532.517090,609.303955 
	C529.033325,636.411682 525.745850,663.177612 522.279053,690.349121 
	C521.151489,698.469971 520.335327,706.206055 519.118164,713.878540 
	C518.927734,715.078979 517.083923,716.416260 515.714294,716.963196 
	C508.831268,719.711853 501.872742,722.277588 494.892517,724.772583 
	C493.009521,725.445557 490.958038,725.647278 488.635437,725.963318 
	C486.974182,725.006348 485.740570,723.983276 484.336517,723.322144 
	C468.266113,715.755554 452.169769,708.244080 435.858124,700.450684 
	C431.436279,698.422729 427.160248,696.822815 423.051575,694.870605 
	C411.335907,689.303833 399.688324,683.593689 387.813782,677.649536 
	C384.039246,675.709717 380.472229,674.044189 376.888947,672.414429 
	C368.979523,668.816956 361.061920,665.237427 353.147675,661.650513 
z"/>
<path fill="#C6E895" opacity="1.000000" stroke="none" 
	d="
M464.971008,557.665527 
	C455.237549,561.307312 445.534943,565.034302 435.764038,568.572754 
	C417.104614,575.330078 398.406311,581.980042 379.351990,588.693359 
	C381.891663,585.399475 384.620178,581.900818 387.752594,578.811707 
	C394.846039,571.816406 402.178802,565.064636 409.341278,558.138306 
	C421.523560,546.357666 433.677002,534.546875 445.777039,522.681885 
	C448.309662,520.198425 450.558441,517.425476 452.971619,514.431274 
	C472.508820,507.009155 492.022919,499.970520 511.511200,492.861023 
	C520.123169,489.719269 528.682678,486.433868 537.597656,483.531403 
	C536.872009,485.480042 536.069031,487.370850 534.713684,488.697235 
	C528.554688,494.724792 522.190430,500.541931 515.992065,506.529968 
	C503.944672,518.168518 491.966003,529.878174 479.935394,541.534119 
	C478.869232,542.567139 477.478119,543.286316 476.499725,544.384460 
	C472.600494,548.761353 468.804962,553.230530 464.971008,557.665527 
z"/>
<path fill="#0D3142" opacity="1.000000" stroke="none" 
	d="
M728.776733,308.780304 
	C737.381287,321.685303 745.716003,334.394653 754.040894,347.110413 
	C755.478210,349.305725 756.873657,351.528320 758.721313,354.210632 
	C769.427856,370.121643 779.701538,385.560425 790.072021,401.330078 
	C793.458252,406.611847 796.747803,411.562683 799.955017,416.389618 
	C795.647278,422.503601 795.646729,422.501312 788.957825,424.028961 
	C779.301514,426.234222 769.645996,428.443298 759.619141,430.567139 
	C751.496521,432.312988 743.779175,434.306335 735.986328,435.938904 
	C718.345398,439.634583 700.667236,443.152374 682.583923,446.753662 
	C681.280334,447.164368 680.434204,447.751404 679.508057,447.935455 
	C665.347229,450.749908 651.175476,453.509277 637.007324,456.287262 
	C632.090210,457.251343 627.176147,458.231110 621.259338,459.401855 
	C622.653381,456.884521 623.432617,455.477264 624.488953,453.884277 
	C639.032227,432.053223 653.338989,410.434387 667.553162,388.754883 
	C681.218994,367.911743 694.788818,347.005676 708.400879,326.127258 
	C713.586304,318.414368 718.771851,310.701538 724.188232,302.645325 
	C725.835083,304.912720 727.169373,306.749786 728.776733,308.780304 
z"/>
<path fill="#C0E79B" opacity="1.000000" stroke="none" 
	d="
M708.040039,326.173737 
	C694.788818,347.005676 681.218994,367.911743 667.553162,388.754883 
	C653.338989,410.434387 639.032227,432.053223 624.117065,453.898743 
	C621.919067,454.960907 620.103455,455.543335 618.861023,456.727173 
	C602.060669,472.735809 585.344116,488.832397 568.590820,504.890442 
	C567.397766,506.033905 565.997559,506.965149 564.833130,508.134003 
	C557.486755,515.507996 550.179810,522.921326 542.859863,530.321655 
	C526.665344,536.043213 510.471680,541.767334 494.275909,547.485474 
	C484.751740,550.848145 475.224152,554.201111 465.334534,557.612000 
	C468.804962,553.230530 472.600494,548.761353 476.499725,544.384460 
	C477.478119,543.286316 478.869232,542.567139 479.935394,541.534119 
	C491.966003,529.878174 503.944672,518.168518 515.992065,506.529968 
	C522.190430,500.541931 528.554688,494.724792 534.713684,488.697235 
	C536.069031,487.370850 536.872009,485.480042 537.961365,483.500793 
	C550.272400,480.711243 558.783997,473.745941 564.113770,462.366364 
	C566.174866,457.965576 569.526062,454.169067 572.603027,449.949371 
	C574.365356,449.601196 576.193726,449.889191 577.193848,449.111725 
	C580.593323,446.468994 583.796753,443.550171 586.901794,440.556976 
	C598.628906,429.252594 610.223389,417.810211 621.986084,406.543274 
	C643.461670,385.972778 665.014954,365.483398 686.551147,344.976318 
	C692.083801,339.708069 697.639526,334.462646 703.262878,329.291901 
	C704.570679,328.089355 706.198608,327.234863 708.040039,326.173737 
z"/>
<path fill="#0C3041" opacity="1.000000" stroke="none" 
	d="
M440.274780,1034.608765 
	C426.612793,1036.686890 413.276093,1038.516235 399.948425,1040.409302 
	C392.298553,1041.495972 384.663361,1042.686279 376.589844,1043.894531 
	C375.299042,1039.237671 374.119659,1034.982666 372.779144,1030.360596 
	C368.246826,1013.256531 363.881348,996.518188 359.499237,979.784180 
	C358.706573,976.757385 357.845642,973.748474 356.865967,970.359253 
	C352.062958,952.373047 347.410248,934.758850 342.494263,916.486572 
	C338.808380,902.429016 335.450073,889.012695 331.931549,875.638428 
	C330.518036,870.265564 328.752594,864.985229 327.169861,859.271362 
	C325.501770,852.156006 323.907562,845.406128 322.100769,838.713501 
	C318.157410,824.106934 314.105927,809.529480 310.116638,794.534607 
	C306.969147,781.804626 303.866486,769.463623 300.617706,757.161133 
	C298.130615,747.742981 295.458893,738.373474 292.869324,728.982361 
	C290.166016,718.396545 287.373230,707.831787 284.862091,697.200623 
	C284.511230,695.715210 285.075256,693.536682 286.029694,692.314758 
	C288.345886,689.349426 291.141632,686.758789 293.763794,683.996521 
	C301.921173,687.709595 309.958710,691.368103 318.567444,695.352173 
	C330.749390,701.120178 342.360138,706.562683 354.082275,712.195435 
	C354.379944,712.668701 354.637909,712.771118 355.205688,712.819214 
	C355.621674,712.970215 355.799591,712.994995 356.177368,713.317322 
	C359.226807,714.885071 362.096100,716.113220 364.922668,717.432800 
	C377.288788,723.205750 389.642517,729.005249 402.304749,734.987915 
	C410.048340,738.760925 417.449829,742.423157 424.937134,745.900635 
	C434.538177,750.359680 444.208282,754.670105 453.958069,759.283081 
	C454.378052,759.628479 454.688568,759.735535 455.214111,759.954102 
	C455.429108,760.065613 455.904144,760.160950 456.086700,760.453735 
	C459.338684,762.271118 462.408142,763.795654 465.402649,765.282959 
	C462.524902,783.169128 465.251068,799.469055 475.983765,814.368591 
	C482.096008,823.290405 489.825500,829.894775 499.301453,834.326416 
	C502.445496,835.796814 504.811737,837.660278 505.820068,841.444336 
	C510.548157,857.223572 515.236450,872.612610 519.917480,888.390869 
	C526.097961,908.923889 532.285706,929.067627 538.558289,949.605164 
	C540.935425,957.590210 543.229431,965.180786 545.518799,972.772827 
	C546.326660,975.451904 546.900330,977.586182 544.167175,980.152161 
	C533.766418,989.917236 527.224060,1002.107483 524.771118,1016.110596 
	C523.862183,1021.299438 521.250854,1022.269775 516.945679,1022.801208 
	C510.915680,1023.545471 504.950714,1024.816162 498.957947,1025.861694 
	C481.615326,1028.339355 464.271759,1030.810669 446.931213,1033.302612 
	C444.813904,1033.606812 442.712616,1034.022583 440.274780,1034.608765 
z"/>
<path fill="#0F3444" opacity="1.000000" stroke="none" 
	d="
M298.241882,951.198853 
	C292.154755,938.739868 286.279053,926.517029 280.579559,914.212646 
	C278.218842,909.116089 276.235382,903.844727 273.902527,898.317383 
	C267.378235,877.052795 261.031830,856.123840 254.484497,834.844788 
	C252.069199,821.994629 249.701996,809.518982 247.698532,796.985168 
	C246.524216,789.638489 245.929428,782.199158 244.965637,774.394043 
	C244.891068,772.918213 244.924805,771.849854 244.932831,770.041748 
	C244.626923,768.464050 244.346725,767.626038 244.066528,766.788086 
	C244.066544,752.704529 244.066544,738.620911 244.066544,724.537354 
	C244.194748,724.473938 244.322952,724.410583 244.451157,724.347229 
	C247.806839,736.672913 251.162537,748.998596 254.680847,762.066284 
	C260.786957,785.037598 266.730469,807.266846 272.711487,829.874878 
	C274.177216,835.823914 275.534424,841.413513 277.047180,846.960754 
	C281.323944,862.643433 285.664490,878.308716 289.931427,894.397949 
	C289.961151,895.972900 289.845428,897.184143 290.147278,898.280518 
	C293.387939,910.051636 296.674652,921.810242 299.991486,933.560242 
	C301.634216,939.379761 303.365509,945.174377 305.056702,950.980225 
	C306.294556,956.510803 307.532379,962.041443 308.770203,967.572021 
	C308.575684,967.688721 308.381165,967.805359 308.186646,967.922058 
	C304.965881,962.415405 301.745148,956.908813 298.241882,951.198853 
z"/>
<path fill="#BDE69E" opacity="1.000000" stroke="none" 
	d="
M272.673950,829.496155 
	C266.730469,807.266846 260.786957,785.037598 254.849396,762.402466 
	C258.266205,759.468567 261.934662,757.219788 265.038116,754.358276 
	C273.287201,746.752319 281.281830,738.870605 289.411896,731.134644 
	C290.230988,730.355286 291.283325,729.821106 292.548370,729.077759 
	C295.458893,738.373474 298.130615,747.742981 300.617706,757.161133 
	C303.866486,769.463623 306.969147,781.804626 309.807922,794.690857 
	C307.888702,796.434692 306.153442,797.466614 304.726562,798.822937 
	C294.008148,809.011292 283.350555,819.263733 272.673950,829.496155 
z"/>
<path fill="#C0E79B" opacity="1.000000" stroke="none" 
	d="
M355.977539,713.019775 
	C355.799591,712.994995 355.621674,712.970215 355.054077,712.684143 
	C354.450806,712.254395 354.219666,712.115173 353.970886,712.005249 
	C342.360138,706.562683 330.749390,701.120178 318.927399,695.390930 
	C324.204865,690.175232 329.843018,685.400879 335.142761,680.276550 
	C341.182922,674.436462 346.921265,668.284180 352.969208,661.959045 
	C361.061920,665.237427 368.979523,668.816956 376.888947,672.414429 
	C380.472229,674.044189 384.039246,675.709717 387.802307,678.030029 
	C387.181488,680.442932 386.779083,682.598511 385.496857,683.859741 
	C376.772736,692.441284 367.848236,700.818787 359.032166,709.307556 
	C357.885559,710.411621 356.989563,711.775940 355.977539,713.019775 
z"/>
<path fill="#BEE79D" opacity="1.000000" stroke="none" 
	d="
M244.065048,767.123657 
	C244.346725,767.626038 244.626923,768.464050 244.852020,769.648010 
	C244.552475,769.149048 244.308029,768.304138 244.065048,767.123657 
z"/>
<path fill="#82DAD6" opacity="1.000000" stroke="none" 
	d="
M498.881714,1026.198486 
	C504.950714,1024.816162 510.915680,1023.545471 516.945679,1022.801208 
	C521.250854,1022.269775 523.862183,1021.299438 524.771118,1016.110596 
	C527.224060,1002.107483 533.766418,989.917236 544.167175,980.152161 
	C546.900330,977.586182 546.326660,975.451904 545.518799,972.772827 
	C543.229431,965.180786 540.935425,957.590210 538.881775,949.427856 
	C547.937134,940.547791 556.686157,932.165100 565.606995,923.969421 
	C568.755615,921.076843 572.324158,918.641296 575.700989,915.997131 
	C579.499390,928.288574 583.585754,940.501831 586.958069,952.909058 
	C588.356750,958.055054 589.962769,960.970764 596.032104,960.362427 
	C599.672302,959.997620 603.488281,961.387817 607.579163,962.439331 
	C606.142212,965.207642 604.550720,967.721436 602.513550,969.798035 
	C599.498169,972.871826 596.117188,975.583008 592.978027,978.540100 
	C580.892029,989.925476 568.780518,1001.284729 556.789795,1012.769958 
	C538.195251,1030.580566 519.670288,1048.464111 501.194275,1066.397583 
	C499.846344,1067.705933 499.133636,1069.668701 498.125610,1071.327148 
	C481.372131,1073.927856 464.618652,1076.528564 447.432556,1079.078613 
	C448.824219,1076.366089 450.265381,1073.309082 452.535614,1071.106812 
	C466.024048,1058.021606 479.712738,1045.143066 493.310852,1032.170654 
	C495.207947,1030.360840 496.977112,1028.417114 498.881714,1026.198486 
z"/>
<path fill="#A8E2B2" opacity="1.000000" stroke="none" 
	d="
M305.384369,950.898010 
	C303.365509,945.174377 301.634216,939.379761 299.991486,933.560242 
	C296.674652,921.810242 293.387939,910.051636 290.147278,898.280518 
	C289.845428,897.184143 289.961151,895.972900 290.309479,894.393799 
	C292.717926,892.920410 294.957947,892.171448 296.626312,890.750977 
	C299.784393,888.062256 302.672546,885.044678 305.569061,882.062927 
	C312.792847,874.626343 319.958405,867.133179 327.147339,859.662781 
	C328.752594,864.985229 330.518036,870.265564 331.931549,875.638428 
	C335.450073,889.012695 338.808380,902.429016 342.209869,916.228760 
	C333.891541,924.686340 325.654724,932.807312 317.269440,940.771973 
	C313.572479,944.283630 309.573761,947.477600 305.384369,950.898010 
z"/>
<path fill="#0F3444" opacity="1.000000" stroke="none" 
	d="
M309.483398,969.392029 
	C309.524048,969.367371 309.442780,969.416687 309.483398,969.392029 
z"/>
<path fill="#B4E3A6" opacity="1.000000" stroke="none" 
	d="
M789.975220,400.999207 
	C779.701538,385.560425 769.427856,370.121643 759.029541,354.359741 
	C763.506714,350.283997 768.364319,346.799988 772.650940,342.716522 
	C779.246582,336.433563 785.450378,329.739197 792.002258,322.907867 
	C799.963013,334.038422 807.763916,345.465759 815.510010,356.930084 
	C818.463867,361.301819 821.292236,365.758331 823.953857,370.600922 
	C819.994202,374.009369 816.097168,376.814484 812.556152,380.013550 
	C804.932129,386.901337 797.491150,393.991760 789.975220,400.999207 
z"/>
<path fill="#B9E6A2" opacity="1.000000" stroke="none" 
	d="
M792.683716,295.248474 
	C792.833801,295.314880 792.486755,295.468567 792.486755,295.468567 
	C792.486755,295.468567 792.133789,295.328735 792.014221,295.180542 
	C792.114014,295.055145 792.327026,295.105072 792.683716,295.248474 
z"/>
<path fill="#B9E6A2" opacity="1.000000" stroke="none" 
	d="
M788.800659,294.585815 
	C788.980957,294.716919 788.487854,294.756744 788.487854,294.756744 
	C788.487854,294.756744 788.077148,294.481018 787.950928,294.268372 
	C788.104614,294.159332 788.369873,294.292358 788.800659,294.585815 
z"/>
<path fill="#7AD9DD" opacity="1.000000" stroke="none" 
	d="
M877.879517,760.288208 
	C864.808838,761.215759 851.737610,762.137329 838.667419,763.073059 
	C830.068176,763.688538 821.470337,764.324402 812.469482,764.534302 
	C813.132141,762.491211 813.938965,760.597900 815.302185,759.280029 
	C828.406555,746.611206 841.647644,734.083435 854.707458,721.369324 
	C855.962463,720.147461 856.257385,717.939514 857.409302,716.091064 
	C861.706543,715.603516 865.592651,715.214233 869.350647,714.837769 
	C868.934265,711.780579 868.540222,708.887817 868.496033,705.961914 
	C870.140198,705.254089 871.657898,704.820740 872.692017,703.864441 
	C878.625671,698.377380 884.355530,692.668518 890.327942,687.225220 
	C896.028137,682.029968 901.940430,677.067505 907.759399,672.002686 
	C908.807312,676.673950 909.855286,681.345215 911.111633,686.945374 
	C943.305664,652.004028 974.999023,617.606140 1007.061829,582.807251 
	C1016.031677,591.168518 1024.980469,599.510254 1033.924072,608.442322 
	C1028.446411,614.359680 1023.017334,619.731995 1017.494263,625.005798 
	C996.078186,645.455444 974.593933,665.833923 953.212158,686.319275 
	C941.194458,697.833130 929.402405,709.582703 917.368103,721.078918 
	C908.713379,729.346619 899.677673,737.218262 891.101562,745.564209 
	C886.384827,750.154297 882.267273,755.360046 877.879517,760.288208 
z"/>
<path fill="#73D7E3" opacity="1.000000" stroke="none" 
	d="
M877.892334,760.724854 
	C882.267273,755.360046 886.384827,750.154297 891.101562,745.564209 
	C899.677673,737.218262 908.713379,729.346619 917.368103,721.078918 
	C929.402405,709.582703 941.194458,697.833130 953.212158,686.319275 
	C974.593933,665.833923 996.078186,645.455444 1017.494263,625.005798 
	C1023.017334,619.731995 1028.446411,614.359680 1034.102783,608.703491 
	C1036.274170,610.021301 1038.261475,611.668274 1040.717651,613.703796 
	C1009.560059,647.499207 978.556702,681.127441 946.695374,715.686218 
	C956.817749,717.598389 966.017517,719.336243 975.621582,721.179688 
	C970.048889,727.646484 964.176819,734.110596 958.066345,740.340881 
	C951.597046,746.937073 944.900940,753.310852 938.015381,759.985352 
	C933.073792,759.469849 928.420776,758.750732 923.259705,757.953064 
	C923.849854,764.910095 924.410767,771.522095 924.902588,778.567383 
	C922.914612,779.811218 920.573669,780.170288 919.145203,781.505493 
	C909.786133,790.253418 900.680847,799.272278 891.361755,808.063904 
	C888.724121,810.552307 885.650146,812.578125 882.451965,814.908203 
	C880.720093,797.054016 879.312622,779.107727 877.892334,760.724854 
z"/>
<path fill="#ABE3AF" opacity="1.000000" stroke="none" 
	d="
M790.072021,401.330109 
	C797.491150,393.991760 804.932129,386.901337 812.556152,380.013550 
	C816.097168,376.814484 819.994202,374.009369 824.091858,370.928955 
	C829.064636,377.652496 834.499817,384.075378 838.036377,391.413330 
	C841.096741,397.763275 846.007324,397.392548 851.499756,398.365601 
	C850.776794,400.447021 849.988892,402.387268 848.609192,403.710388 
	C836.864868,414.972809 825.030823,426.142059 813.187988,437.301239 
	C802.796936,447.092346 792.306763,456.779083 781.989807,466.647125 
	C780.018311,468.532776 778.648987,471.048035 776.661499,473.451233 
	C766.617981,475.695435 756.924988,477.811157 747.209045,479.815369 
	C732.473267,482.855103 717.721558,485.817322 703.073853,488.495209 
	C704.419617,486.646484 705.533325,484.976837 706.938171,483.605408 
	C717.627747,473.169861 728.361877,462.779785 739.115417,452.410095 
	C740.902039,450.687256 743.009216,449.280365 744.695496,447.472992 
	C749.864929,441.932068 754.901794,436.267365 759.990173,430.650757 
	C769.645996,428.443298 779.301514,426.234222 788.957825,424.028961 
	C795.646729,422.501312 795.647278,422.503601 799.955017,416.389618 
	C796.747803,411.562683 793.458252,406.611847 790.072021,401.330109 
z"/>
<path fill="#A4E1B7" opacity="1.000000" stroke="none" 
	d="
M777.001770,473.272797 
	C778.648987,471.048035 780.018311,468.532776 781.989807,466.647125 
	C792.306763,456.779083 802.796936,447.092346 813.187988,437.301239 
	C825.030823,426.142059 836.864868,414.972809 848.609192,403.710388 
	C849.988892,402.387268 850.776794,400.447021 851.919800,398.456085 
	C866.903137,400.039917 878.043091,408.038452 886.868103,419.746765 
	C887.965881,421.203156 888.909302,422.775909 889.646484,424.724640 
	C884.712830,429.136688 879.857727,432.910583 875.435425,437.137238 
	C856.554138,455.183563 837.788025,473.350525 819.020386,491.515289 
	C817.159241,493.316650 815.573853,495.402832 813.520020,497.263306 
	C802.736694,491.003693 795.793274,481.873718 790.925964,470.554626 
	C786.267883,471.463928 781.634827,472.368378 777.001770,473.272797 
z"/>
<path fill="#9DE0BD" opacity="1.000000" stroke="none" 
	d="
M813.860535,497.356873 
	C815.573853,495.402832 817.159241,493.316650 819.020386,491.515289 
	C837.788025,473.350525 856.554138,455.183563 875.435425,437.137238 
	C879.857727,432.910583 884.712830,429.136688 889.701782,425.066803 
	C901.057556,444.632355 898.939514,468.149536 883.895752,485.877136 
	C881.488586,488.051514 879.751160,490.053986 878.013794,492.056427 
	C876.950867,493.006836 875.888062,493.957275 874.154053,495.006226 
	C872.166870,495.733643 870.576416,496.076385 869.576660,497.035034 
	C857.819275,508.309753 846.150452,519.676819 834.271729,530.636108 
	C832.832642,523.629517 831.234558,517.047241 830.443115,510.369415 
	C829.869019,505.526031 827.587830,503.281952 823.075806,501.983307 
	C819.829163,501.048828 816.920166,498.941193 813.860535,497.356873 
z"/>
<path fill="#83DAD4" opacity="1.000000" stroke="none" 
	d="
M907.732666,671.602295 
	C901.940430,677.067505 896.028137,682.029968 890.327942,687.225220 
	C884.355530,692.668518 878.625671,698.377380 872.692017,703.864441 
	C871.657898,704.820740 870.140198,705.254089 868.313965,705.607788 
	C865.950562,695.702637 864.100525,686.122131 862.291992,676.533813 
	C859.932129,664.022583 857.605225,651.505066 855.605469,638.955566 
	C857.216736,638.191406 858.688904,637.676025 859.724792,636.698486 
	C867.829163,629.050476 875.765137,621.222168 883.937317,613.648376 
	C887.318481,610.514771 891.150513,607.867615 894.777466,604.999268 
	C899.086975,627.066772 903.396484,649.134399 907.732666,671.602295 
z"/>
<path fill="#8DDCCA" opacity="1.000000" stroke="none" 
	d="
M894.771667,604.597473 
	C891.150513,607.867615 887.318481,610.514771 883.937317,613.648376 
	C875.765137,621.222168 867.829163,629.050476 859.724792,636.698486 
	C858.688904,637.676025 857.216736,638.191406 855.447571,638.577820 
	C854.123474,634.217407 853.237732,630.211487 852.484253,626.180786 
	C849.607361,610.791870 846.773132,595.395020 844.272217,579.928101 
	C846.654419,578.496216 848.927429,577.391541 850.680054,575.736084 
	C859.940430,566.988770 869.040894,558.072510 878.275146,549.297119 
	C879.687866,547.954590 881.508301,547.041138 883.140198,545.929260 
	C885.657410,558.035522 888.229492,570.130737 890.671509,582.252136 
	C892.140930,589.545593 893.407898,596.879822 894.771667,604.597473 
z"/>
<path fill="#96DEC3" opacity="1.000000" stroke="none" 
	d="
M883.201782,545.508911 
	C881.508301,547.041138 879.687866,547.954590 878.275146,549.297119 
	C869.040894,558.072510 859.940430,566.988770 850.680054,575.736084 
	C848.927429,577.391541 846.654419,578.496216 844.084473,579.583374 
	C840.517700,563.214294 837.488037,547.116943 834.458313,531.019531 
	C846.150452,519.676819 857.819275,508.309753 869.576660,497.035034 
	C870.576416,496.076385 872.166870,495.733643 873.855713,495.091980 
	C877.240234,511.748993 880.251831,528.418762 883.201782,545.508911 
z"/>
<path fill="#96DEC3" opacity="1.000000" stroke="none" 
	d="
M878.316284,491.918152 
	C879.751160,490.053986 881.488586,488.051514 883.585022,486.012726 
	C882.168884,487.910858 880.393799,489.845337 878.316284,491.918152 
z"/>
<path fill="#79D9DF" opacity="1.000000" stroke="none" 
	d="
M498.560303,1071.326660 
	C499.133636,1069.668701 499.846344,1067.705933 501.194275,1066.397583 
	C519.670288,1048.464111 538.195251,1030.580566 556.789795,1012.769958 
	C568.780518,1001.284729 580.892029,989.925476 592.978027,978.540100 
	C596.117188,975.583008 599.498169,972.871826 602.513550,969.798035 
	C604.550720,967.721436 606.142212,965.207642 607.968750,962.543762 
	C623.762817,965.652832 636.625000,973.753418 646.471741,986.502258 
	C648.479370,989.101562 650.596191,990.414612 653.934692,990.056885 
	C656.393005,989.793457 658.908630,990.064087 661.779419,990.264160 
	C657.325195,995.804199 652.544373,1001.227234 647.625305,1006.521790 
	C645.942261,1008.333374 643.838440,1009.746094 642.053040,1011.471680 
	C630.470886,1022.665161 618.971558,1033.944702 607.352295,1045.099365 
	C593.583618,1058.317383 579.688965,1071.404419 565.943359,1084.646240 
	C564.343018,1086.187744 563.343750,1088.353271 562.034729,1090.583496 
	C551.164734,1086.665283 543.237366,1078.826294 536.480042,1069.704468 
	C534.525818,1067.066406 532.695862,1066.342407 529.420593,1066.900757 
	C519.320801,1068.622681 509.142700,1069.885376 498.560303,1071.326660 
z"/>
<path fill="#96DEC3" opacity="1.000000" stroke="none" 
	d="
M519.924744,888.001587 
	C515.236450,872.612610 510.548157,857.223572 506.193024,841.408813 
	C510.932434,837.573242 515.630310,834.476807 519.691833,830.696655 
	C533.420654,817.918945 546.967041,804.943848 560.502686,791.960266 
	C579.075378,774.145142 597.598022,756.277466 616.063965,738.351868 
	C617.664978,736.797668 618.683777,734.643738 620.293762,732.503296 
	C628.078674,731.752380 635.542175,731.256104 643.007202,730.783020 
	C657.002380,729.896057 670.998474,729.022583 684.984863,728.511230 
	C683.893555,730.842529 683.204895,733.210693 681.667480,734.706116 
	C668.948486,747.077087 656.028625,759.241760 643.311829,771.614990 
	C642.053101,772.839722 641.744446,775.040894 640.994873,776.788818 
	C623.787231,777.994385 606.579529,779.199951 589.214661,780.416504 
	C587.921021,797.014282 582.371765,811.501831 570.294434,822.759583 
	C565.739563,827.005493 560.329834,830.445740 554.949646,833.647949 
	C552.244568,835.257996 551.497375,836.265991 552.681274,839.341248 
	C554.523682,844.126892 555.660950,849.184021 556.861816,854.689575 
	C549.466492,861.953186 542.401062,868.758423 535.113220,875.316467 
	C530.213257,879.725830 524.998596,883.785461 519.924744,888.001587 
z"/>
<path fill="#83DAD4" opacity="1.000000" stroke="none" 
	d="
M856.998047,716.189331 
	C856.257385,717.939514 855.962463,720.147461 854.707458,721.369324 
	C841.647644,734.083435 828.406555,746.611206 815.302185,759.280029 
	C813.938965,760.597900 813.132141,762.491211 812.031677,764.463257 
	C781.630737,766.882629 751.265320,768.956177 720.540466,770.631104 
	C721.420532,768.701477 722.510498,767.014160 723.922546,765.663513 
	C737.093018,753.066528 750.352112,740.562012 763.481750,727.922852 
	C764.951233,726.508179 765.776672,724.424438 767.291931,722.516968 
	C773.300781,721.921143 778.914429,721.399536 784.537109,721.009460 
	C798.280334,720.055847 812.027588,719.159607 825.773621,718.246826 
	C836.181396,717.555725 846.589905,716.874756 856.998047,716.189331 
z"/>
<path fill="#8DDCCA" opacity="1.000000" stroke="none" 
	d="
M766.900757,722.650879 
	C765.776672,724.424438 764.951233,726.508179 763.481750,727.922852 
	C750.352112,740.562012 737.093018,753.066528 723.922546,765.663513 
	C722.510498,767.014160 721.420532,768.701477 720.090332,770.554932 
	C708.145325,771.883301 696.296753,772.962219 684.435486,773.876343 
	C670.245605,774.969849 656.044861,775.922546 641.421875,776.862549 
	C641.744446,775.040894 642.053101,772.839722 643.311829,771.614990 
	C656.028625,759.241760 668.948486,747.077087 681.667480,734.706116 
	C683.204895,733.210693 683.893555,730.842529 685.399780,728.403687 
	C697.535828,727.177612 709.248352,726.436646 720.959412,725.673279 
	C736.273804,724.675049 751.587036,723.659180 766.900757,722.650879 
z"/>
<path fill="#8DDCCA" opacity="1.000000" stroke="none" 
	d="
M519.917480,888.390869 
	C524.998596,883.785461 530.213257,879.725830 535.113220,875.316467 
	C542.401062,868.758423 549.466492,861.953186 556.922424,855.068604 
	C561.843384,869.959900 566.481812,885.031616 571.086121,900.113831 
	C572.623657,905.150146 574.073547,910.213257 575.632202,915.630615 
	C572.324158,918.641296 568.755615,921.076843 565.606995,923.969421 
	C556.686157,932.165100 547.937134,940.547791 538.796875,949.034058 
	C532.285706,929.067627 526.097961,908.923889 519.917480,888.390869 
z"/>
<path fill="#A6E2B4" opacity="1.000000" stroke="none" 
	d="
M475.867493,814.045410 
	C465.251068,799.469055 462.524902,783.169128 465.402649,765.282959 
	C462.408142,763.795654 459.338684,762.271118 456.270905,760.163269 
	C463.230896,752.779358 470.281036,746.069336 477.113342,739.144470 
	C481.244843,734.957031 485.038483,730.436279 488.983887,726.065308 
	C490.958038,725.647278 493.009521,725.445557 494.892517,724.772583 
	C501.872742,722.277588 508.831268,719.711853 515.714294,716.963196 
	C517.083923,716.416260 518.927734,715.078979 519.118164,713.878540 
	C520.335327,706.206055 521.151489,698.469971 522.607910,690.321289 
	C525.804077,688.031921 528.792725,686.491821 531.129333,684.266968 
	C542.886658,673.071960 554.401672,661.622070 566.188171,650.458557 
	C568.268921,648.487854 571.233765,647.450562 573.844971,646.405762 
	C573.264771,651.567383 572.616638,656.303711 571.997437,661.043823 
	C569.369324,681.163696 566.674744,701.275513 564.215393,721.416077 
	C563.881470,724.150330 564.740967,727.030273 564.871643,730.135742 
	C558.486328,736.431641 552.282715,742.440369 546.067139,748.436523 
	C527.275757,766.564880 508.541718,784.753540 489.637756,802.763794 
	C485.353638,806.845459 480.473358,810.301392 475.867493,814.045410 
z"/>
<path fill="#B9E6A2" opacity="1.000000" stroke="none" 
	d="
M542.780518,530.703064 
	C550.179810,522.921326 557.486755,515.507996 564.833130,508.134003 
	C565.997559,506.965149 567.397766,506.033905 568.590820,504.890442 
	C585.344116,488.832397 602.060669,472.735809 618.861023,456.727173 
	C620.103455,455.543335 621.919067,454.960907 623.840088,454.084473 
	C623.432617,455.477264 622.653381,456.884521 621.259338,459.401855 
	C627.176147,458.231110 632.090210,457.251343 637.007324,456.287262 
	C651.175476,453.509277 665.347229,450.749908 679.508057,447.935455 
	C680.434204,447.751404 681.280334,447.164368 682.556641,447.129059 
	C681.851379,449.276886 681.045654,451.355072 679.600647,452.789185 
	C675.142761,457.213593 670.411804,461.361359 665.839417,465.672272 
	C653.923218,476.907013 641.993469,488.128296 630.188965,499.479584 
	C628.743103,500.869904 628.028076,503.020203 626.606628,504.984650 
	C615.467529,507.453735 604.679993,509.686157 593.943848,512.142944 
	C592.507141,512.471680 590.339050,513.798462 590.187988,514.894409 
	C588.854919,524.565063 587.901611,534.288025 586.681030,544.263672 
	C586.378479,544.918091 586.230957,545.304321 586.261719,546.072388 
	C586.158386,549.318359 585.876709,552.182556 585.472839,555.305542 
	C585.258301,556.126709 585.165894,556.689026 585.070923,557.651245 
	C584.667419,560.362244 584.266418,562.673340 583.515747,565.019958 
	C581.770813,565.877319 580.162109,566.472595 579.013184,567.555603 
	C565.518860,580.276245 552.134216,593.113464 538.594910,605.785583 
	C537.021606,607.258118 534.692261,607.922852 532.713440,608.962097 
	C532.826599,607.574036 532.939697,606.185913 533.292236,604.137573 
	C533.666626,602.914612 533.801697,602.351868 533.936707,601.789185 
	C533.965881,600.769714 533.995056,599.750244 534.267456,598.071228 
	C534.657349,596.556580 534.803894,595.701477 534.950439,594.846375 
	C534.939880,593.495544 534.929321,592.144653 535.104858,590.296082 
	C535.430176,589.546204 535.437927,589.287903 535.314270,589.023499 
	C537.776611,569.710510 540.238953,550.397522 542.780518,530.703064 
z"/>
<path fill="#B0E3AA" opacity="1.000000" stroke="none" 
	d="
M532.517090,609.303955 
	C534.692261,607.922852 537.021606,607.258118 538.594910,605.785583 
	C552.134216,593.113464 565.518860,580.276245 579.013184,567.555603 
	C580.162109,566.472595 581.770813,565.877319 583.574097,565.453979 
	C582.241028,579.956360 580.537903,594.065002 578.747192,608.162598 
	C577.145081,620.775513 575.446411,633.376160 573.790344,645.982178 
	C571.233765,647.450562 568.268921,648.487854 566.188171,650.458557 
	C554.401672,661.622070 542.886658,673.071960 531.129333,684.266968 
	C528.792725,686.491821 525.804077,688.031921 522.787231,689.915649 
	C525.745850,663.177612 529.033325,636.411682 532.517090,609.303955 
z"/>
<path fill="#B0E3AA" opacity="1.000000" stroke="none" 
	d="
M488.635437,725.963318 
	C485.038483,730.436279 481.244843,734.957031 477.113342,739.144470 
	C470.281036,746.069336 463.230896,752.779358 456.088348,759.870483 
	C455.904144,760.160950 455.429108,760.065613 455.037018,759.800293 
	C454.398346,759.340820 454.132935,759.177368 453.848633,759.044617 
	C444.208282,754.670105 434.538177,750.359680 424.937134,745.900635 
	C417.449829,742.423157 410.048340,738.760925 402.502502,734.729309 
	C411.258911,726.021118 420.206696,717.852783 428.933472,709.454895 
	C431.625427,706.864380 433.714966,703.647766 436.080322,700.717896 
	C452.169769,708.244080 468.266113,715.755554 484.336517,723.322144 
	C485.740570,723.983276 486.974182,725.006348 488.635437,725.963318 
z"/>
<path fill="#B9E6A2" opacity="1.000000" stroke="none" 
	d="
M435.858093,700.450684 
	C433.714966,703.647766 431.625427,706.864380 428.933472,709.454895 
	C420.206696,717.852783 411.258911,726.021118 402.198517,734.536499 
	C389.642517,729.005249 377.288788,723.205750 364.922668,717.432800 
	C362.096100,716.113220 359.226807,714.885071 356.177368,713.317322 
	C356.989563,711.775940 357.885559,710.411621 359.032166,709.307556 
	C367.848236,700.818787 376.772736,692.441284 385.496857,683.859741 
	C386.779083,682.598511 387.181488,680.442932 388.002441,678.320557 
	C399.688324,683.593689 411.335907,689.303833 423.051575,694.870605 
	C427.160248,696.822815 431.436279,698.422729 435.858093,700.450684 
z"/>
<path fill="#B0E3AA" opacity="1.000000" stroke="none" 
	d="
M534.716064,595.094482 
	C534.803894,595.701477 534.657349,596.556580 534.349243,597.697510 
	C534.285706,597.103027 534.383667,596.222778 534.716064,595.094482 
z"/>
<path fill="#B0E3AA" opacity="1.000000" stroke="none" 
	d="
M533.674805,601.968018 
	C533.801697,602.351868 533.666626,602.914612 533.385376,603.729492 
	C533.296997,603.369995 533.354980,602.758362 533.674805,601.968018 
z"/>
<path fill="#B0E3AA" opacity="1.000000" stroke="none" 
	d="
M535.171509,589.249756 
	C535.437927,589.287903 535.430176,589.546204 535.201538,589.901367 
	C535.084412,589.828308 535.056580,589.652161 535.171509,589.249756 
z"/>
<path fill="#B2E3A8" opacity="1.000000" stroke="none" 
	d="
M626.974365,504.818298 
	C628.028076,503.020203 628.743103,500.869904 630.188965,499.479584 
	C641.993469,488.128296 653.923218,476.907013 665.839417,465.672272 
	C670.411804,461.361359 675.142761,457.213593 679.600647,452.789185 
	C681.045654,451.355072 681.851379,449.276886 682.976929,447.117950 
	C700.667236,443.152374 718.345398,439.634583 735.986328,435.938904 
	C743.779175,434.306335 751.496521,432.312988 759.619141,430.567108 
	C754.901794,436.267365 749.864929,441.932068 744.695496,447.472992 
	C743.009216,449.280365 740.902039,450.687256 739.115417,452.410095 
	C728.361877,462.779785 717.627747,473.169861 706.938171,483.605408 
	C705.533325,484.976837 704.419617,486.646484 702.708130,488.650360 
	C686.704712,492.413483 671.170044,495.731628 655.621765,498.984924 
	C646.083374,500.980743 636.524231,502.877197 626.974365,504.818298 
z"/>
<path fill="#9DE0BD" opacity="1.000000" stroke="none" 
	d="
M475.983734,814.368591 
	C480.473358,810.301392 485.353638,806.845459 489.637756,802.763794 
	C508.541718,784.753540 527.275757,766.564880 546.067139,748.436523 
	C552.282715,742.440369 558.486328,736.431641 565.215820,730.207520 
	C569.979919,734.530457 574.886169,737.349976 581.390442,735.968384 
	C583.459839,735.528748 585.503296,734.776917 587.589661,734.639893 
	C598.378601,733.931824 609.177612,733.376831 619.973083,732.768433 
	C618.683777,734.643738 617.664978,736.797668 616.063965,738.351868 
	C597.598022,756.277466 579.075378,774.145142 560.502686,791.960266 
	C546.967041,804.943848 533.420654,817.918945 519.691833,830.696655 
	C515.630310,834.476807 510.932434,837.573242 506.153198,841.018555 
	C504.811737,837.660278 502.445496,835.796814 499.301453,834.326416 
	C489.825500,829.894775 482.096008,823.290405 475.983734,814.368591 
z"/>
<path fill="#B2E3A8" opacity="1.000000" stroke="none" 
	d="
M327.169830,859.271362 
	C319.958405,867.133179 312.792847,874.626343 305.569061,882.062927 
	C302.672546,885.044678 299.784393,888.062256 296.626312,890.750977 
	C294.957947,892.171448 292.717926,892.920410 290.357941,893.976685 
	C285.664490,878.308716 281.323944,862.643433 277.047180,846.960754 
	C275.534424,841.413513 274.177216,835.823914 272.711487,829.874878 
	C283.350555,819.263733 294.008148,809.011292 304.726562,798.822937 
	C306.153442,797.466614 307.888702,796.434692 309.789886,795.096375 
	C314.105927,809.529480 318.157410,824.106934 322.100769,838.713501 
	C323.907562,845.406128 325.501770,852.156006 327.169830,859.271362 
z"/>
<path fill="#A6E2B4" opacity="1.000000" stroke="none" 
	d="
M453.958069,759.283081 
	C454.132935,759.177368 454.398346,759.340820 454.822021,759.688782 
	C454.688568,759.735535 454.378052,759.628479 453.958069,759.283081 
z"/>
<path fill="#B9E6A2" opacity="1.000000" stroke="none" 
	d="
M354.082275,712.195435 
	C354.219666,712.115173 354.450806,712.254395 354.815979,712.557861 
	C354.637909,712.771118 354.379944,712.668701 354.082275,712.195435 
z"/>
<path fill="#0C3041" opacity="1.000000" stroke="none" 
	d="
M620.293762,732.503296 
	C609.177612,733.376831 598.378601,733.931824 587.589661,734.639893 
	C585.503296,734.776917 583.459839,735.528748 581.390442,735.968384 
	C574.886169,737.349976 569.979919,734.530457 565.391968,729.914551 
	C564.740967,727.030273 563.881470,724.150330 564.215393,721.416077 
	C566.674744,701.275513 569.369324,681.163696 571.997437,661.043823 
	C572.616638,656.303711 573.264771,651.567383 573.844971,646.405762 
	C575.446411,633.376160 577.145081,620.775513 578.747192,608.162598 
	C580.537903,594.065002 582.241028,579.956360 583.923889,565.418457 
	C584.266418,562.673340 584.667419,560.362244 585.291138,557.440308 
	C585.540955,556.235168 585.567993,555.640991 585.595093,555.046753 
	C585.876709,552.182556 586.158386,549.318359 586.524048,545.863770 
	C586.683960,544.847412 586.759949,544.421509 586.835938,543.995544 
	C587.901611,534.288025 588.854919,524.565063 590.187988,514.894409 
	C590.339050,513.798462 592.507141,512.471680 593.943848,512.142944 
	C604.679993,509.686157 615.467529,507.453735 626.606689,504.984680 
	C636.524231,502.877197 646.083374,500.980743 655.621765,498.984924 
	C671.170044,495.731628 686.704712,492.413483 702.610840,488.967590 
	C717.721558,485.817322 732.473267,482.855103 747.209045,479.815369 
	C756.924988,477.811157 766.617981,475.695435 776.661499,473.451233 
	C781.634827,472.368378 786.267883,471.463928 790.925964,470.554626 
	C795.793274,481.873718 802.736694,491.003693 813.520020,497.263306 
	C816.920166,498.941193 819.829163,501.048828 823.075806,501.983307 
	C827.587830,503.281952 829.869019,505.526031 830.443115,510.369415 
	C831.234558,517.047241 832.832642,523.629517 834.271729,530.636108 
	C837.488037,547.116943 840.517700,563.214294 843.735107,579.656372 
	C846.773132,595.395020 849.607361,610.791870 852.484253,626.180786 
	C853.237732,630.211487 854.123474,634.217407 855.106323,638.612549 
	C857.605225,651.505066 859.932129,664.022583 862.291992,676.533813 
	C864.100525,686.122131 865.950562,695.702637 867.964233,705.640808 
	C868.540222,708.887817 868.934265,711.780579 869.350647,714.837769 
	C865.592651,715.214233 861.706543,715.603516 857.409302,716.091064 
	C846.589905,716.874756 836.181396,717.555725 825.773621,718.246826 
	C812.027588,719.159607 798.280334,720.055847 784.537109,721.009460 
	C778.914429,721.399536 773.300781,721.921143 767.291870,722.516968 
	C751.587036,723.659180 736.273804,724.675049 720.959412,725.673279 
	C709.248352,726.436646 697.535828,727.177612 685.409058,728.036072 
	C670.998474,729.022583 657.002380,729.896057 643.007202,730.783020 
	C635.542175,731.256104 628.078674,731.752380 620.293762,732.503296 
z"/>
<path fill="#B0E3AA" opacity="1.000000" stroke="none" 
	d="
M585.472900,555.305542 
	C585.567993,555.640991 585.540955,556.235168 585.293701,557.040405 
	C585.165894,556.689026 585.258301,556.126709 585.472900,555.305542 
z"/>
<path fill="#B0E3AA" opacity="1.000000" stroke="none" 
	d="
M586.680969,544.263672 
	C586.759949,544.421509 586.683960,544.847412 586.345703,545.481995 
	C586.230957,545.304321 586.378479,544.918091 586.680969,544.263672 
z"/>
</svg>