<?xml version="1.0" standalone="no"?>
<!DOCTYPE svg PUBLIC "-//W3C//DTD SVG 20010904//EN"
 "http://www.w3.org/TR/2001/REC-SVG-20010904/DTD/svg10.dtd">
<svg version="1.0" xmlns="http://www.w3.org/2000/svg"
 width="300.000000pt" height="391.000000pt" viewBox="0 0 300.000000 391.000000"
 preserveAspectRatio="xMidYMid meet">
<metadata>
Created by potrace 1.10, written by Peter Selinger 2001-2011
</metadata>
<g transform="translate(0.000000,391.000000) scale(0.100000,-0.100000)"
fill="#000000" stroke="none">
<path d="M192 3891 c-73 -25 -122 -67 -157 -136 l-30 -59 -3 -1715 c-2 -1195
0 -1731 8 -1766 15 -72 72 -143 145 -180 l59 -30 1286 0 1286 0 59 30 c37 19
72 46 92 73 67 89 64 -32 61 1862 l-3 1715 -21 46 c-29 63 -83 120 -141 149
l-48 25 -1270 2 c-1210 2 -1273 2 -1323 -16z m2618 -159 c32 -31 39 -47 44
-92 4 -30 6 -806 4 -1725 -3 -1616 -4 -1671 -22 -1701 -10 -17 -33 -40 -50
-50 -30 -18 -74 -19 -1286 -19 -1212 0 -1256 1 -1286 19 -17 10 -40 33 -50 50
-18 30 -19 83 -19 1741 0 1652 1 1711 19 1741 21 35 48 54 91 65 17 4 590 7
1274 8 l1243 1 38 -38z"/>
<path d="M480 2855 l0 -525 525 0 525 0 0 525 0 525 -525 0 -525 0 0 -525z"/>
<path d="M1651 3354 c-25 -32 -28 -92 -6 -134 l16 -30 454 0 454 0 16 30 c22
42 19 102 -6 134 l-20 26 -444 0 -444 0 -20 -26z"/>
<path d="M1651 2924 c-14 -18 -21 -41 -21 -69 0 -28 7 -51 21 -69 l20 -26 442
0 c243 0 447 4 453 8 38 25 47 129 14 162 -19 19 -33 20 -464 20 l-445 0 -20
-26z"/>
<path d="M1645 2490 c-22 -42 -19 -102 6 -134 l20 -26 444 0 444 0 20 26 c26
33 28 109 5 142 l-15 22 -454 0 -454 0 -16 -30z"/>
<path d="M511 1891 c-35 -33 -41 -73 -15 -110 37 -52 10 -51 1043 -51 656 0
969 3 988 11 78 29 99 105 42 153 l-31 26 -998 0 -998 0 -31 -29z"/>
<path d="M509 1481 c-45 -46 -35 -117 20 -146 26 -13 127 -15 830 -15 l799 0
30 25 c17 14 33 39 37 55 7 33 -15 84 -44 100 -13 7 -294 10 -831 10 l-812 0
-29 -29z"/>
<path d="M509 1071 c-45 -46 -35 -117 20 -146 26 -13 114 -15 690 -15 490 0
667 3 686 12 57 26 72 108 29 152 l-27 26 -684 0 -685 0 -29 -29z"/>
<path d="M509 711 c-21 -22 -29 -39 -29 -66 0 -27 8 -44 29 -66 l29 -29 942 0
942 0 29 29 c40 41 40 91 0 132 l-29 29 -942 0 -942 0 -29 -29z"/>
</g>
</svg>
