<?xml version="1.0" encoding="UTF-8"?>
<svg xmlns="http://www.w3.org/2000/svg" width="531" height="274" x="0" y="0" style="position: absolute;">
	<polyline points="531 0 531 274" stroke-width="1" stroke="rgb(190,190,190)" stroke-dasharray="5, 5" fill="none">
	</polyline>
	<polyline points="477.9 0 477.9 274" stroke-width="1" stroke="rgb(190,190,190)" stroke-dasharray="5, 5" fill="none">
	</polyline>
	<polyline points="424.8 0 424.8 274" stroke-width="1" stroke="rgb(190,190,190)" stroke-dasharray="5, 5" fill="none">
	</polyline>
	<polyline points="371.7 0 371.7 274" stroke-width="1" stroke="rgb(190,190,190)" stroke-dasharray="5, 5" fill="none">
	</polyline>
	<polyline points="318.6 0 318.6 274" stroke-width="1" stroke="rgb(190,190,190)" stroke-dasharray="5, 5" fill="none">
	</polyline>
	<polyline points="265.5 0 265.5 274" stroke-width="1" stroke="rgb(190,190,190)" stroke-dasharray="5, 5" fill="none">
	</polyline>
	<polyline points="212.4 0 212.4 274" stroke-width="1" stroke="rgb(190,190,190)" stroke-dasharray="5, 5" fill="none">
	</polyline>
	<polyline points="159.3 0 159.3 274" stroke-width="1" stroke="rgb(190,190,190)" stroke-dasharray="5, 5" fill="none">
	</polyline>
	<polyline points="106.2 0 106.2 274" stroke-width="1" stroke="rgb(190,190,190)" stroke-dasharray="5, 5" fill="none">
	</polyline>
	<polyline points="53.1 0 53.1 274" stroke-width="1" stroke="rgb(190,190,190)" stroke-dasharray="5, 5" fill="none">
	</polyline>
	<polyline points="0 0 0 274" stroke-width="1" stroke="rgb(190,190,190)" stroke-dasharray="5, 5" fill="none">
	</polyline>
	<polyline points="0 274 531 274" stroke-width="1" stroke="rgb(190,190,190)" stroke-dasharray="5, 5" fill="none">
	</polyline>
	<polyline points="0 219.2 531 219.2" stroke-width="1" stroke="rgb(190,190,190)" stroke-dasharray="5, 5" fill="none">
	</polyline>
	<polyline points="0 164.4 531 164.4" stroke-width="1" stroke="rgb(190,190,190)" stroke-dasharray="5, 5" fill="none">
	</polyline>
	<polyline points="0 109.6 531 109.6" stroke-width="1" stroke="rgb(190,190,190)" stroke-dasharray="5, 5" fill="none">
	</polyline>
	<polyline points="0 54.8 531 54.8" stroke-width="1" stroke="rgb(190,190,190)" stroke-dasharray="5, 5" fill="none">
	</polyline>
	<polyline points="0 0 531 0" stroke-width="1" stroke="rgb(190,190,190)" stroke-dasharray="5, 5" fill="none">
	</polyline>
</svg>
