<svg viewBox="0 0 100 100" xmlns="http://www.w3.org/2000/svg">
    <circle cx="50" cy="50" r="20" stroke="black" stroke-width="12" fill="red" fill-opacity="0" />
    <polyline points="41,31 47,19 53,19 59,31" stroke="black" stroke-width="3" fill="black" fill-opacity="1"></polyline>
    <polyline points="41,31 47,19 53,19 59,31" stroke="black" stroke-width="3" fill="black" fill-opacity="1" transform="matrix(0.707 -0.707 0.707 0.707 -20.7 50)"></polyline>
    <polyline points="41,31 47,19 53,19 59,31" stroke="black" stroke-width="3" fill="black" fill-opacity="1" transform="matrix(-0.707 -0.707 0.707 -0.707 50 120.7)"></polyline>
    <polyline points="41,31 47,19 53,19 59,31" stroke="black" stroke-width="3" fill="black" fill-opacity="1" transform="matrix(0.707 0.707 -0.707 0.707 50 -20.7)"></polyline>
    <polyline points="41,31 47,19 53,19 59,31" stroke="black" stroke-width="3" fill="black" fill-opacity="1" transform="matrix(-0.707 0.707 -0.707 -0.707 120.7 50)"></polyline>
    <polyline points="41,31 47,19 53,19 59,31" stroke="black" stroke-width="3" fill="black" fill-opacity="1" transform="matrix(0 -1 1 0 0 100)"></polyline>
    <polyline points="41,31 47,19 53,19 59,31" stroke="black" stroke-width="3" fill="black" fill-opacity="1" transform="matrix(0 1 -1 0 100 0)"></polyline>
    <polyline points="41,31 47,19 53,19 59,31" stroke="black" stroke-width="3" fill="black" fill-opacity="1" transform="matrix(-1 0 0 -1 100 100)"></polyline>
</svg>